<svg xmlns="http://www.w3.org/2000/svg" viewBox="0 0 94.9 113.86"><defs><style>.cls-1{fill:#2e3192;}.cls-1,.cls-2,.cls-3,.cls-4,.cls-5,.cls-6{fill-rule:evenodd;}.cls-2{fill:#f8f8f6;}.cls-3{fill:#22955b;}.cls-4{fill:#f6f7f3;}.cls-5{fill:#060103;}.cls-6{fill:#d01159;}</style></defs><title>Asset 1</title><g id="Layer_2" data-name="Layer 2"><g id="objects"><path class="cls-1" d="M85.68,78.42c-3.87,9.66-6.11,11.85-16,15.66q-.9,7-1.82,14l5.15,4-.57,1.69-10.52-1.19,3.73-17.52H29.16c1,5.49,2,10.91,3.24,17.44l-10.18,1.36-.66-1.72,5-4c-.51-4.4-1.05-9-1.65-14.1C13,91.29,8.61,82.18,7.52,70.54l-1.7.6c.64,3.29,1.63,6.57,1.8,9.88a18.51,18.51,0,0,1-1.41,7.66c-.24.59-4.29.65-4.55.06A22.42,22.42,0,0,1,0,81.11c-.1-2,.83-4,1-6,.42-5.6,1.49-10.86,5.53-15.18A11.47,11.47,0,0,0,8.6,55.27c2.37-8.18,4.23-16.52,7.05-24.53,3-8.56,9.17-13.8,19.18-14.11-.93-3.81.05-8-5.11-9.8-1-.35-1.94-3.34-1.6-4.82C28.34,1,31-.2,32.31.07s2.67,2.14,3,3.57c.94,3.51,1.11,7.22,2,10.72a4.32,4.32,0,0,0,3.24,2.35c5.13.25,10.29.11,16.13.11.77-4.55,1.33-9,2.4-13.38.35-1.39,2-3.24,3.21-3.42a4.73,4.73,0,0,1,4,2.33c.43,1.2-.58,4.19-1.43,4.39-5.36,1.26-4.13,5.84-5.68,9.67C72.7,17.19,78,26.13,81.18,37.16c1.56,5.45,2.66,11,4.28,16.46.78,2.6,2.37,4.94,3.41,7.47a113,113,0,0,1,4.24,11.29A42.64,42.64,0,0,1,94.9,82.56a10.73,10.73,0,0,1-2,6.09c-.55.78-3.53,1-4.21.31a10.71,10.71,0,0,1-2.51-5.37c-.24-1.21.73-2.64,1.15-4l1.08-8.14-1.61-.07Q86.27,74.91,85.68,78.42ZM55.44,74.74c.06.7.1,1.39.2,2.08.57,4.09,2.17,6.2,7,5.16s5.47-3.53,4.26-7.53c-.31-1-.61-2-.91-3l6.51-6.09L71.72,64C55.76,75.65,39.83,76,23.88,64,24.5,72.07,41.92,77.74,55.44,74.74Zm7.5-32.12a15.66,15.66,0,0,0-31.31-.72C31.47,51.13,37.91,58,46.85,58.16A15.58,15.58,0,0,0,62.94,42.62Z"/><path class="cls-2" d="M63.31,42.62A15.59,15.59,0,0,1,47.22,58.16C38.28,58,31.83,51.13,32,41.9a15.66,15.66,0,0,1,31.31.72Zm-9.82-3.78c-3.36,1.07-5.14-.32-5.68-3.64-.55-.86-1.2-2.53-1.63-2.47A9.11,9.11,0,0,0,38,39.91a9.26,9.26,0,0,0,4.42,10.93c4.25,2.58,8.57,2,12.13-1.41,3-2.93,4-6.64,2.11-10.61C56.48,38.42,54.59,38.81,53.49,38.84Z"/><path class="cls-3" d="M55.8,74.74c-13.52,3-30.94-2.67-31.56-10.74,16,12,31.89,11.65,47.85,0,.25.44.51.87.76,1.3l-6.51,6.09Z"/><path class="cls-4" d="M55.8,74.74l10.54-3.31c.31,1,.61,2,.91,3,1.22,4,.53,6.5-4.25,7.53s-6.42-1.07-7-5.16C55.91,76.13,55.87,75.44,55.8,74.74Z"/><path class="cls-5" d="M47.81,35.2c.54,3.32,2.32,4.71,5.68,3.64,2.19,5.59.38,9.69-4.65,10.47a6.92,6.92,0,0,1-8.22-5.65C39.91,39.06,42.2,36.38,47.81,35.2Z"/><path class="cls-6" d="M47.81,35.2c-5.61,1.18-7.9,3.86-7.19,8.46a6.92,6.92,0,0,0,8.22,5.65c5-.78,6.84-4.88,4.65-10.47,1.1,0,3-.42,3.18,0,1.89,4,.94,7.68-2.11,10.61-3.56,3.42-7.88,4-12.13,1.41A9.26,9.26,0,0,1,38,39.91a9.11,9.11,0,0,1,8.17-7.18C46.61,32.67,47.26,34.34,47.81,35.2Z"/></g></g></svg>