<?xml version="1.0" encoding="utf-8"?>
<!-- Generator: Adobe Illustrator 19.1.0, SVG Export Plug-In . SVG Version: 6.00 Build 0)  -->
<svg version="1.1" id="Layer_1" xmlns="http://www.w3.org/2000/svg" xmlns:xlink="http://www.w3.org/1999/xlink" x="0px" y="0px"
	 width="1400px" height="980px" viewBox="0 0 1400 980" enable-background="new 0 0 1400 980" xml:space="preserve">
<rect id="XMLID_18_" y="0.8" fill="#B3F3FF" width="1400" height="978.7"/>
<path id="XMLID_19_" fill="#56A9C5" d="M1400,215.3c-11,14,6.4,19-30.3,18.5c-36.7-0.5-40.6-20.5-59.7-4.5c-19,16-35,18.6-35,26
	c0,7.3,2.7,10.7,0,16.6s-4,34-9.3,34.6c-5.3,0.7-0.7-28.6-2.7-34s-4.7,42.6-11.3,39.3c-6.7-3.3-5.3-40-6-54.6
	c-0.7-14.7-0.7-38.6-5-37.3c-4.3,1.3-5,25.3-3.6,36.6c1.3,11.3-0.6,19.3-0.6,19.3s-6.1,0.2-6.1-12.2c0-12.4-4-26-4-26
	s-2.7,87.5,0,110.9c2.7,23.3-2.4,44-1.2,49.3c1.2,5.3-4.8-21.3-4.8-40c0-18.6-1.3-37.9-4-50.9c-2.7-13-6.7-21-6.7-37
	c0-16-7.3-28-7.3-15.3c0,12.7-7.3,30-6.7,44c0.7,14,0,26.6,0,26.6s-8-12-7.3-30.6c0.7-18.6-1.3-48.6-3.3-60.6c-2-12-4-11.9-5.3,3.7
	c-1.3,15.6-0.7,21-2.7,28.3c-2,7.3-8,23.3-7.3,4c0.7-19.3-0.8-29.3-0.1-36c0.7-6.7,0.2-8-0.2-21.3c-0.4-13.3-2.4,14-5.1,22
	c-2.7,8-6.7-2-6.7-15.3c0-13.3-8-42-8-15.3s-4,26-4,37.3s2,21.3,0,30.6s2,30,0,32s-9.3-20.6-8.7-36.6c0.7-16,4.6-16,0-34.6
	s-7.6-20.2-13.1-7.1c-5.5,13.1-5.5,20.4-5.5,27.8c0,7.3-2,12,0,21.3s2.9,25.7-0.9,21.2c-3.8-4.5-3.1-20.5-5.1-31.2
	s-6.5-7.7-4.7-23.3s4.7-26.1-1.6-33.4s-5,2.1-5.7,12.1c-0.7,10-4.7,10-4.7,17.7s-6,9-5.3,0c0.7-9,2-18.3,2.7-26.3
	c0.7-8-5.9-16.4-4.7-19.9c1.1-3.5-5.9-10.7-5.3,3.9s3.2,12.7,0,19.3c-3.3,6.7,0,6.7-4.6,9.3c-4.7,2.7-8.7-0.7-6.7-11.3
	s4-17.6,4-26.1s-4.5-15.1-4.5-15.1c-0.1,0-12.1,16.5-10.8,26.5c1.3,10-0.9,14.7-0.1,18s2.1,17.3-3.2,8.7c-5.3-8.7-6.2-15.8-10-19.3
	s-6.7-11.3-10.7-6.7s-18.5,150.3-66.5,177.3c-48,27-96,62.8-96,98.8s-18,75-21,132c-3,56.9,36.6,100.6,49.8,95.3
	c13.2-5.3,13.2-0.7,52.2,0c39,0.7,36-20.3,72-20.3c36,0,10-18,51.5,3c41.5,21-19.7,22.9,86.3,27.5c106,4.6,93.1,10.8,129.7,11
	c36.6,0.2,41.5-17.4,56.6-14.4c15,2.9,49.1,3.8,49.1,3.8v267.1H0V0.5h1400V215.3z"/>
<path id="XMLID_15_" fill="#4E99B7" d="M1400,76.3c-83-0.9-99.7,31.1-153,45.7c-53.3,14.7-150,26.6-182,53.9s-24,49.3-68,87.2
	s-72,30-140,83.9S763,459,737,490s-40,37-52,70.9c-12,34-6.7,60,0,107.9s0,52.8,15,130.3s41.2,121.9,55,133.4s84,48,84,48H0V0.5
	h1400V76.3z"/>
<path id="XMLID_17_" fill="#428CAD" d="M1335,0.5c-84,21-119.6,88.9-246.8,114.9s-259.8,35.3-300,67.6S711,217.3,689,257.2
	c-22,40-24,103.9-42,127.9s-32,20-40,42s0.4,20-26.8,30C553,467,527,485,533,519s78.6,101.9,87.3,145.9c8.7,44,15.3,54.6,35,94.2
	c19.7,39.6,7.7,49.6,59.7,72.6c52,23,30-13,66,31s34,36,88,53.9s46,1,78,32c32,31,60,31,60,31H0V0.5H1335z"/>
<path id="XMLID_16_" fill="#4084A7" d="M604.2,23.5c-7.2,84.5,19.2,191.8,0,235.8S567,359.1,539,391.1s-94,61.4-112,83.6
	s-33,6.3-29.5,36.2c3.5,30,19.5,25.1,33.5,64.5s80.7,152.6,97.3,191.9c16.7,39.3,51.9,89.2,51.9,89.2l61.5,34L781,979.5H0V0.5h601
	L604.2,23.5z"/>
<path id="XMLID_11_" fill="#3E7696" d="M1104.3,0.5c-84.6,5.7-104.4-7-135.9,29.6C937,66.8,974.3,41.4,829,76.3s-186,75-222,111
	s-82,48-100,89.9c-18,42-39,55.9-52.5,85.9s-44.5,51.9-64,75.9C371,463,341,461,331,490c-10,29,12,64.9,14,104.9
	s56.6,57.9,60.3,95.9c3.7,38,15.7,133.9,83.7,167.8c68,34,92,44,198,63.9s194-22,277,6c83,28,221,50.9,275,50.9s-1239,0-1239,0V0.5
	H1104.3z"/>
<path id="XMLID_12_" fill="#31688F" d="M644.5,0.5c-48.4,24.9-57.8,45-89.7,82.9C523,121.4,503,115,491,145.2s-20,50.1-46,68.1
	s-40,38-64,55.9c-24,18-52,22-56,49.9c-4,28-2,51.9-20,55.9s-30-2-48,12c-18,14-8,10-58,24c-50,14-128,33.4-128,63.7s6,38.2,40,74.2
	s54,16,80,53.9s92.3,94,124,141.9c31.7,47.9-5.8,45.8,49.3,69.9c55.1,24.2,90.2,44,90.2,44l76.5,71.9l250,49H0V0.5H644.5z"/>
<path id="XMLID_10_" fill="#153D5B" d="M0,618.9c12,4,20,23,26,14s1-15,8-14s12,6.8,12,16.4c0,9.6-9,13.6,0,21.6c9,8,9-6,15,9
	c6,15,19,29,19,29s8-3,14,0c6,3,8,17.3,14,7.2s5-39.5,9-39.8s0.7,38.3,5.7,37.6c5-0.7,5.3-21.3,7-40.6c1.7-19.3,5-38.3,7.3-34.3
	c2.3,4-1.7,13,1.7,25.6c3.3,12.7,2.3,18.6,2.3,29.3c0,10.7-2.3,21.3,1,23.6c3.3,2.3,1.3-34,3.3-35.3s3.3,3.7,3.3,9.7
	c0,6,2.3,22,2.3,22l4.7,19c0,0,10.3,4.3,12.7,9.3c2.3,5-0.6,7.3,5.3,10.7c5.9,3.4,7.2-4.1,13,3s4.3,10.7,13,21
	c8.7,10.3,10.7-25.6,13-32.6c2.3-7,9.3-17,9.7-5.3c0.3,11.7-0.3,15.3,0,24c0.3,8.7-2.3,12.3,2.7,21.3c5,9,63.1,17.6,70.4,27.9
	s19.3,18.4,24,16.4c4.7-2,9.3-51.9,11.7-50.9c2.3,1,4.3,22.6,4,31.3c-0.3,8.7-2.9,12.3,0,12.7c3,0.3,3-47,7-45c4,2,6,5.7,5,13.7
	c-1,8,0.3,33,0.3,33s52.6-29,58-35.3c5.4-6.3,4.7-19.3,6.4-23.3c1.7-4,6,7,6.3,14.3c0.3,7.3-0.3,12.9,1.3,12.8
	c1.7-0.1,3-52.1,6.7-54.1c3.7-2,4.7,0,4.7,9s-0.3,11,1.3,20s3.7,19.3,3.7,19.3s2.7-39.6,2.7-43c0-3.3,4-2,4,8.3s2.3,23.3,2.3,23.3
	s2,2.3,2.7,8.7c0.7,6.3,1.7,0.7,9,1c7.3,0.3,7.7-11,7.7-11l-1.7-14c0,0,4.3,2.3,4.3,6.3s0.7,9.3,1.3,12.7s-1.3-14.7,1.7-17.3
	s4.7-6.3,6,1.3c1.3,7.7,2.7,14,2.7,14s13-32.6,15-38.6c2-6,0.7-16,3.7-8.7c3,7.3,3,5.7,3,14s0,12.7,0,12.7s5.7-22.6,6-27.6
	c0.3-5-2-12,2.3-8.7c4.3,3.3,6,2.9,5.7,11.6c-0.3,8.7,0,15.7,0,15.7s-1,3.7,0.7,17.6c1.7,14,12.7,25.6,13.7,17.3
	c1-8.3-1.3-14.7,0-17.3c1.3-2.7,4-7,5-7s5-1.3,6,4s3.7,12.3,5,14c1.3,1.7,7,6,8.3-1.3c1.3-7.3-0.3-16,3-25.3
	c3.3-9.3,4.3-12.7,5.3-13.3c1-0.7,4,0,4.3,9.3c0.3,9.3,3.3,13.7,4,20c0.7,6.3-0.7,6,2,12.3c2.7,6.3,23.3,15,27.3,2
	c4-13,0.7-20,8.3-20.6s13-2,21-1c8,1,9.7,2.3,12.3,7c2.7,4.7,1,2.7,5.3,6.3c4.3,3.7,7.7,10.7,9.7,2.7c2-8,2-17,2-17s3.3-4,4,0
	c0.7,4-0.3,7,0,12c0.3,5-0.3,5.3,2.3,10c2.7,4.7,6.3-13.7,6.3-13.7s0.3-12,2.3-12s1.3,0.7,3,11.3c1.7,10.7-1.3,20.3,3,14
	c4.3-6.3,2.7-22,2.7-24.3c0-2.3,2.3-8.7,2.7-3.7c0.3,5,0,12.3,0,12.3s3,11.7,3.7,8.7c0.7-3-0.7-24.3,0-30.3c0.7-6,3-17.8,4.3-9.7
	c1.3,8.1,3,10.1,2,17s2.3,15.7,4.3,8.3c2-7.3,0.3-23.8,6.3-25.4c6-1.6,2.7,5.7,3,14.1c0.3,8.3,2-5,4-11.3c2-6.3,9-21.3,9.3-15.3
	c0.3,6,1,11.3,0,16.3c-1,5,1.3,11,2.7,18c1.3,7-2.3,12,4.7,12.7c7,0.7,18,2.3,24.3,0.3c6.3-2,4-5.7,10.3-2c6.3,3.7,5.7,7.7,13.7,2.3
	c8-5.3,4.3-20,10.3-21.6s7.3-3.3,11.7,5.7c4.3,9,7.3,18.6,13.3,16.3c6-2.3-1.7-13,6.7-10.7c8.3,2.3,8,2.7,11,7s17,1.7,17,1.7
	s2-3,11.3-6c9.3-3,3.3-6,9.3-3s8,7.7,18,6.3s13-13.3,26.7-14.3c13.7-1,17.3,3,25.3,0.7c8-2.3,17.7-3.7,22.3-4.7
	c4.7-1,3.7-6.3,9.7-4.7s11,3.3,16.7,5c5.7,1.7,0.3-5.3,6-8.3c5.7-3,3.7-3.3,20-0.7c16.3,2.7,36.8-2.4,54.7,1.7c17.8,4,14-4,29.7,0.7
	s17.7,11.3,30,10.7c12.3-0.7,7.7-2.7,19.7-2.7s15.3,4.7,17.7-1.7c2.3-6.3-1.3-10.7,1.3-17c2.7-6.3,9.7,5,12.3,10.3s2.7,6.7,8.7,6
	s10-4.3,13.3-0.7c3.3,3.7,16.7,9,16.7,9s11.3-4.4,18.7-5.7c7.3-1.3,18.3,1.7,18.3,1.7h13c0,0,1.7-8.5,5-16.1
	c3.3-7.6,3.3,8.1,11.3,10.1c8,2,0.5-7,12.3-3.7c11.8,3.3,9.3,8.7,18.7,8.3s17.9-8.2,17.9-8.2s5.4-4.2,20.1-1.8s18-8.7,28.3-9
	c10.3-0.3,20.7,0,20.7,0v267.1H0V618.9z"/>
<path id="XMLID_9_" fill="#1A314C" d="M516,921.6c41,0,31.9,6.4,85.9-13.8s48.1-25.2,72.1-37.2c24-12,26-23,41-39c15-16,16-17,31-26
	c15-9,19-12,30-21c11-9,24-26,33-25s4,6,10,13s1,28-6,40c-7,12,2.4,24,8.7,24s10.3,12.2,30.3,4.1c20-8.1,40-30.1,44-30.1s2,3,5,17
	s6,22,19,18c13-4,17-26,27-29s11,0,20,9c9,9-11,21.2,17,15.1s15.9,0.9,32-13.1c16.1-13.9,11-48,19-71.9s8-46,15-47c7-1,1.8,5,0,24
	s-11.4,25.6-2.7,36.8s12.7-32.8,18.7-40.8c6-8,0,46.6,7,58.9c7,12.4-1.9,18.9,6.5,27.9c8.5,9.1,18.5-21.9,27.5-26.9
	c9-5,12-14.8,17.9-2.9s13.3,19.4,20.1,17.9s5.2-11.2,17-3c11.8,8.2,13-21,13-31s4-29,7-30s11.1,37.1,8.9,49.5
	c-2.2,12.4-15,12.8-3.5,18.8c11.5,6,9.5-0.3,23.5,1.7s17-9.1,25,5.9s11,8.3,21,18c10,9.7,30.1,14.3,44,13s25-8,31,2s19,8,34,10
	c15,2,34,0,34,0v120.9H410c0,0-16.5-11.6,12.2-20c28.7-8.4,37.8-6,55.8-18C496,929.6,516,921.6,516,921.6z"/>
<path id="XMLID_8_" fill="#0E1B3C" d="M0,865.6c18-12,30-11,54-10c24,1,23-6,54-8c31-2,61,4,72-2c11-6,18.6-41.2,28.3-40.1
	c9.7,1.1,30.7,12.1,43.7,10.1c13-2,18-3,18-21c0-18-13.5-50.9-6-61.9s2.2-37.5,8.1-29.2c5.9,8.2,5.5,11.4,5.9,33.2
	c0.4,21.8,10,27,8,54.9c-2,28,5,45,8,35s1-36,0-56.9s-4.8-53.9,1.6-53.9c6.4,0,4.4,49,9.4,74.9s4,36,7,37c3,1,4-3,24,5
	c20,8,22,15,44,9c22-6,29-3,53-2s39-3,49-3s8-6,22,5c14,11,29,12,40,16s14,6,23,15c9,9,13,2,27,21s-2,7,20,24s20,17,33,20
	s12-13,40-15c28-2,39-15,51-7c12,8,10,9,17,17c7,8,32,24,32,24s40,0,60,9c20,9,18,4,35,9c17,5,27,5,27,5H0V865.6z"/>
<path id="XMLID_6_" fill="#0B1331" d="M0,881.2c17.6-13.5,48.1-27.9,53.6-35.9s-3.7-5.3,5.5-8s0.5-12.7,15.1-12.3s17.1,8.7,17.5,4.4
	c0.4-4.3,5.1-28.7,10.4-26.1s-4,30,2.7,30.6c6.7,0.7,4.7-0.7,12.7-7.3s8.7-12.7,9.3-20.6c0.7-8,1.3-38,4-38s1.3,49.3,4,49.3
	s7.6-12.7,21.1-13.4c13.5-0.6,19.2-9.6,21.5-17.9c2.3-8.3,16.6-97.2,22.6-99.2c6-2-0.7,22.6,0,42.6s3,45.3,2.5,61.9
	c-0.5,16.6,7.5,12,10.8,19.3c3.3,7.3,1.3,18.6,13.3,16c12-2.7,8.7-7.3,10.7-24c2-16.6,3.3-111.2,6-111.2s5.3,28,5.3,28
	s-6-49.3,0-70.6c6-21.3,6-32.6,7.3-47.3s2-27.3,4.7-26s8,30.6,4.7,47.3c-3.3,16.6,2.1,34,1.1,44s-1.3,18.6,0.1,23.3s4.1-18.6,6.8-18
	c2.7,0.7-6,48.6,0,69.3c6,20.6,8,28,5.3,40c-2.7,12-1.7,34.6,1.2,45.3s1.5,15.3,4.2,20.6c2.7,5.3,22.6,2.7,30.6,29.3
	s11.3,30.6,22,37.3c10.7,6.7,26,11.3,50.6,21.3s27.3,2,45.9,10.7c18.6,8.7,37.6,5.7,67.9,12.7c30.3,7,52.6,0.7,78.6,5.3
	c26,4.7,112.6-2.6,128.5,0c15.9,2.6,22-8.8,51.9,1.6s158.5-8.9,177.8-12.3c19.3-3.3,19.3-14,32.6-18c13.3-4,29.3-46,28-59.3
	c-0.5-5-1.1-13.4-1.4-21.9c-0.6-14.2-0.5-28.6,1.5-27.4c3.3,2,7.9,33.3,7.9,48c0,14.7-3.3,15.3,2,32s18.6,21.3,21.3,10
	c2.7-11.3,2.9-48.8,6-59.3c3.1-10.5,0-38.6,6-57.3c6-18.6,4-54.6,6.7-59.3c2.7-4.7,7.3,5.2,6.7,31.2c-0.7,26-0.7,36.7-0.7,68.7
	c0,32-0.5,43.3,0.7,53.3c1.3,10,5.3,18,9.9,18c0,0,6.7,0.7,9.3-12.7s4-105.9,5.3-123.2c1.3-17.3,1.3-52.6,4.7-53.3
	c3.3-0.7-1.3,28.5,0,49.2c1.3,20.7,3.3,45.3,5.3,38c2-7.3,0.7-26,2.7-32.6c2-6.7,4-16.6,4,4.7s-4,33.3-4,57.3s2.7,46.6,4,52.6
	c1.3,6,6,8.7,11.3,7.3c5.3-1.3,17.3,1.3,15.3-18c-2-19.3-6.7-46-2.7-36s2.9,17.3,2.9,17.3s0.5-35.3,0.1-51.9
	c-0.4-16.6,1-59.9,3.6-56.6s2,79.9,6,92.6s8.2,18.5,8.2,18.5s7.8-61.1,11.1-71.8c3.3-10.7,4.7-34.6,4.7-34.6s8-31.3,10-30
	c2,1.3,2,19.3,2,26c0,6.7-2.7,27.3,0,31.3c2.7,4,5.3,51.3,8,61.9c2.7,10.7,4.7,19.3,8,19.3s-2-28,0-36c2-8-0.4-17.3,1.1-23.3
	s6.9-44,8.2-31.3c1.3,12.7,3.3,16,3.3,37.3s-3.3,29.3,1.3,34.6c4.7,5.3,6-48.6,5.3-63.9c-0.7-15.3-4.3-14,0.2-24.6
	c4.5-10.7,3.2-10,3.2-22c0-12-4.7-93.2-2.7-93.9c2-0.7,7.3,2,8,18.6s2,38,5.3,35.3s2-15.3,4.7-25.3c2.7-10,1.3-41.3,4-51.9
	c2.7-10.7,11.3-13.3,11.3-7.3c0,6,2.7,16.6,2.7,23.3c0,6.7-2,89.9,0,104.6c2,14.7,0.7,34,0,54.6c-0.7,20.6-5.3,34.6-5.3,45.3
	c0,10.7,8.7,26.6,17.3,23.3c8.7-3.3,15.3-26,16-40c0.7-14,3.3-38,8.7-40.6c5.3-2.7,14.6,20,10,38.6c-4.7,18.6-8,44.6-2.7,43.3
	c5.3-1.3,10-34,10.7-57.9c0.7-24,1.3-26.6,6-48.6c4.7-22,2-44,4.7-48.6c2.7-4.7,4,15.3,4,30c0,14.7-1.8,20.6,0,37.3
	c1.8,16.7,0.7,50.6,16,55.9c15.3,5.3,14.6-13.3,21.3-28.6s6-65.3,14-76.6c8-11.3,6.7-43.3,16-63.9c9.3-20.6,22.8-22.8,22.8-22.8
	v337.5H0V881.2z"/>
<path id="XMLID_7_" fill="#112B45" d="M0,0.5c0,33,0,129.9,0,152.8s0,68.9,0,85.9s0,39,0,72.9s0,109.9,0,117.9s21.9-12,21.9-25
	s-17-24,0-47s-14.6-48,0-76.9s26.8-47,36.5-83.9S82.8,10.5,82.8,10.5s21.9,172.8,29.2,189.8c7.3,17-7.3,28,0,61.9
	c7.3,34-3.1,74.9,2.1,97.9c5.2,23,12.5,50.6,17.4,71.8c4.9,21.1,14.6-42.8,14.6-69.8s0-48,0-84.9c0-37,9.7-101.9,14.6-127.9
	c4.9-26,2.4-48,12.2-70.9s24.4-55.9,24.4-55.9s7.3,110.9,17,130.9s-17,35,0,56.9s21.9,82.9,26.8,86.9c4.9,4-14.6-83.9,0-102.9
	c14.6-19,31.7-26,26.8-52.9c-4.9-27-17.8-61.9,0.8-85.9c18.6-24,6.5,55.9,16.2,73.9s9.7,27,19.5,31c9.7,4-9.7-12,0-23
	c9.7-11,12.2-26,17-36c4.9-10-21.9-49,0-60.9c21.9-12,36.5,33.6,39,47.8c2.4,14.2-7.3,35.1,0,33.1s26.8-26,26.8-39s7.3-34,14.6-39
	s12.2,16,14.6,34c2.4,18,12.2,17,14.6,32s17-12.3,17-21.1s4.9-23.8,0-38.8c-4.9-15-0.5-25,2.2-31s34.4,25,39.2,41s4.9,30,12.2,50.9
	s2.4,19,7.3,41s7.3,23.3,19.5,24.6s7.3-12.7,17-28.6s9.7-53.3,14.6-59.1c4.9-5.8,12.2,40.1,14.6,57.1c2.4,17-4.9,27.3,0,30.6
	c4.9,3.3,34.1-15.7,26.8-48.6c-7.3-33-9.8-33,1.2-54.9s3.7-28,11-34c7.3-6,19.5,6,21.9,23s14.6,38,24.4,39s9.7-29,14.6-40
	s36.5,25,29.2,38c-7.3,13-0.3,11,1.1,25s-8.7,27,0,28c8.7,1,18.4-22,20.8-32s-7.3-16.3,0-31.1c7.3-14.8-4.1-23.8,0.4-35.8
	s2.1-33,2.1-33s19.4,34,19.4,49.9s-12.2,19,0,42s0,94.9,24.4,93.9s14.6-42,14.6-69.9s-10.8-26.3,1.9-47.1s10.3-60.8,12.7-67.8
	c2.4-7,19.5,40.6,19.5,67.8s2.4,34.1,0,62.1s-14.9,67,1.1,68c16,1,6.2-37,20.8-55c14.6-18,9.7-100.9,21.9-115.9s26.8-36,34.1-29
	c7.3,7,0,47,0,47s0,22,0,41s-5.7,23,3.2,29c8.9,6,21.1-17,21.1-29s-17-40,0-52.9c17-13,24.4-25,39-39c14.6-14,17-17,17,16
	s-14.6,34,0,50.9s3.7,72.4,14.6,73.4c11,1,18.3-10.5,18.3-25.5s-2.4-39.5,0-55.9s3.7-31,6.1-36s19.5,31,17,42c-2.4,11-6.1,21.5,0,25
	c6.1,3.5,6.1-8.5,15.8-19s12.2-34,12.2-34s7.3,24,12.2,42s11,30,11,48s18.3,28,19.5,50.4c1.2,22.5-1.2,35.5,9.7,36.5
	c11,1,19.5-15,21.9-30c2.4-15,21.9-17,23.1-46c1.2-29,0-49,0-49l14.6-46.5c0,0-3.7,50.4,2.4,69.4s15.8,62.4,15.8,72.9
	c0,10.5,9.7,4.5,14.6-13c4.9-17.5,1.2-39,4.9-50.9c3.7-12-3.7-45,4.9-54.9c8.5-10,17,63.9,18.3,82.9s4.9,18,8.5,41
	c3.7,23,15.8,38.5,15.8,38.5l9.7-24.4c0,0-7.3-27,1.2-46s0-46.5,0-46.5s-6.1-24.5,0-35.5s4.9-32.5,9.7-35.5
	c4.9-3,13.4,132.9,19.5,144.9c6.1,12,9.7,16,9.7,29.5c0,13.5-4.9,18.5,0,35c4.9,16.5,9.7,35.5,13.4,49.4c0,0-12.2,9.5,0,10.5
	c12.2,1,25.6-42.5,25.6-62.4s-13.4-21.5,0-37s7.3-43.5,7.3-43.5l1.4-43.5c0,0,9.6,41,12,53.9c2.4,13,1.2,22,0,42
	c-1.2,20,0,14,0,35.5s0,41.5,0,41.5s-2.4,9,0,23c2.4,14,0,35,0,35s7.3,65.4,7.3,76.9s6.1,20.5,6.1,24.5c0,4,16.9,9.5,16.9-3
	c0-12.5,0-466.5,0-466.5H0z"/>
<path id="XMLID_5_" fill="#0B1331" d="M748,0.8c21.3,2.7,35.6,10.7,34.1,18.6s-0.7,24,4.3,48s4.3,11.5,5.6,3.3s-1.9-32.6,7.3-37.3
	c9.2-4.7,5.6,0,9.2,14.7c3.6,14.7,7.8,26,8.5,18s-5-26,0-34s7.8-2.7,7.8,9s2.8,7.6,5,0s4.3-17.6,14.2-18.3s20.6-8.7,22.8,7.3
	s10.7,17.3,12.8,29.3s5.7,28,7.8,41.3c2.1,13.3-5,36.6,0,40.6c5,4,8.5-23.3,7.8-38.6c-0.7-15.3,0.7-32,7.8-43.3s6.4-29.3,11.4-34
	s10.7-4,17.1,22c6.4,26,8.7,129,15.6,128.5s3.1-83.2,8.3-102.6s14.4-32,13-43.3c-1.4-11.3,7.1-31.3,12.8-26c5.7,5.3,7,16.6,8.5,41.3
	c1.5,24.7-2.2,34.6,0,47.3s10.7-1.3,8.6-20c-2.1-18.6,2.8-20,7.1-40c4.3-20,10-32.6,14.2-26.6s7.1,17.3,8.5,24.6
	c1.4,7.3-2.8,17.3,0,28.6c2.8,11.3,9.2,10.7,9.2-2s-2.8-19.3,0-30c2.8-10.7,17.8-30.6,17.8-22s8.4,20,7.8,36s-0.4,37.9-0.3,47
	s7.4,0.3,7.4-17.6s7.1-29.2,7.8-39.5c0.7-10.3,0-30.7,0-30.7L748,0.8z"/>
<path id="XMLID_4_" fill="#0B1331" d="M0,0.5c0,0,23,129.5,23,148.8s-1.3,36,0,67.3s4.7,41.3,6.7,31.3c2-10-2.7-39.3,0-55.9
	s8.7-45.3,4-60.6C29,116,42,70,45.5,75.4C49,80.8,72.3,174,71.7,199.3c-0.7,25.3,2.7,30.1,3.3,52.3s2.7,4.9,4-13.7s0.7-22.6,0-40
	s1.8-35.7,0-52.6s4-44,4-44s2,65.9,4.7,85.2c2.7,19.3-2.7,28.6,0,56.6c2.7,28,2.7,46.6,5.3,46.6s10.7-42,8-60.6s1.3-41.3,4.7-63.9
	c3.3-22.6-5.3-39.3,0-51.3c5.3-12,6.7-30,9.3-51.9s8.7-36,10.7-36s-4,40.6,0,44.6c4,4,9.4-12.4,9.3-24s8.7-30.6,8.7-30.6
	s14.7,69.3,14.7,83.2s-3.3,26.6,0,31.3c3.3,4.7,1.3-11.3,6.7-22.6s0.2-31.9,5.3-48s4-28.6,8.7-32.6s-0.7,121.9,0,134.5
	c0.7,12.7,0.5,84.6,1.9,89.2s8.7-112.6,13.4-124.5c4.7-12,10.4-56,17.3-79.3c6.9-23.2,10.7,21.3,10.7,48s7.3,41.3,6,61.9
	c-1.3,20.6-1,32.6,0.2,33.3s5.2-6.7,5.2-15.3s3.8-34.8,2.7-44.7s6.7-37.9,7.3-52.5c0.7-14.7,2.7-41.3,6-34
	c3.3,7.3,5.3,80.6,7.3,89.9s5.9-4.7,5.8-14.7c0-10,6.8-75.2,8.2-84.6c0,0,8,107.9,8.7,123.2c0.7,15.3,6-2,6-5.3c0-3.3-0.7-16,0-28.6
	c0.7-12.7,4-34,4-44.6s3.7-51.5,3.7-51.5s4.3,53.4,3.6,65.4s-3.2,44.3,0.1,51.8c3.3,7.5,3.9-50.4,5.9-61.1s-0.5-28.7,2-42.6
	s4.7-31.3,4.7-31.3s5.5,55,8.1,65.8c2.6,10.8,4.6,23.5,6.6,17.5c2-6,0.7-8.7,4.7-29.3s0-39.3,0-39.3s14.7,10,16,30.6
	s0.7,35.3,4.7,34c4-1.3,0.7-34.6,6-44c5.3-9.3,8.7-28.3,8.7-36.6s0-8.3,0-8.3H0z"/>
<path id="XMLID_2_" fill="#0B0F24" d="M0,0.5v300c0,0,7.7,0,6.3-10.7S17,62.8,17,62.8s8,53.9,12,53.3s16-55.9,16-55.9
	s8,259.1,12,259.1S69,56.8,69,56.8s1.3,88.6,5.3,87.9s5.3-83.9,9.3-87.9s18-25.3,27.3-30s14,14,20,12c6-2,12.7-22.6,12.7-22.6
	s10,55.9,15.3,58.6s14.7-63.3,14.7-63.3s13.3,244.4,16,280.4c2.7,36,6,90.6,10,90.6S213,191.3,213,176s6-162.5,6-162.5
	s8,55.9,10.7,70.6c2.7,14.7,7.3,46.6,8.7,69.3c1.3,22.6,4.7,52.6,8,52.6c3.3,0,7.3-117.9,11.3-138.5c4-20.6,6-51.9,6-51.9
	s-2,114.5,0,133.2s2,36.6,6,38c4,1.3,10-67.9,12-84.6s9.3-86.6,9.3-86.6s5.3,24.6,4,32.6s2,20.6,4,22c2,1.3,3.3-21.3,6-28.6
	s2.7-18,2.7-18s1.3,41.3,0,55.3c-1.3,14,4,60.6,6,63.3c2,2.7,1.3-58.6,5.3-73.3s6-55.3,6-55.3s3.3,26,8,30s9.3-2.7,9.3-14.7
	s3.3-24,3.3-24s2.7,30,4.7,32.6s8-37,8-37H373c0,0-4,23.6,0,37s-0.7,53.9,0,67.3s5.3,48.6,10,71.3s7.3,96.6,9.3,97.2
	s3.3-32.6,8-53.3c4.7-20.6,8.7-52.6,4.7-86.6s-6-75.9-2-87.2s6.7-32,6.7-32s20,8.7,20,17.3s4.7-0.7,6-9.3c1.3-8.7,4.7-15.3,4.7-15.3
	s1.3,15.3,2.7,25.3s9.3,0.7,9.3-8s4-17.3,4-17.3l6.5-5.5H877c0,0-2.7,18.1,0,31.5s2.7,19.3,2.7,31.3s0,24,3.3,23.3s4.7-27.3,6.7-28
	c2-0.7,4,19.3,7.3,22.6s2,23.3,6.7,24c4.7,0.7,0.7-26.6,6-26c5.3,0.7,5.3,26.6,6.7,35.3c1.3,8.7,4.7,22,4.7,22s-3.3-38.6,0-46
	c3.3-7.3,2.7-25.3,2.7-25.3s4.7,20.6,6.7,21.3s6.7-20.6,6.7-20.6s2.7,53.3,3.3,63.9c0.7,10.7-4,29.3,0,29.3s6.7-31.3,9.3-21.3
	c2.7,10,4.7,42.1,4.7,52.7s-0.7,10.6,3.3,6.6c4-4-3.3-36.6,3.3-26.6s2,41.3,6,41.3s6-35.3,6-49.3c0-14,5.3-94.6,5.3-94.6
	s-3.3,71.9,0,81.9c3.3,10,8.9,26,9.1,32c0.2,6-3.5,19.3,0,20.6c3.5,1.3,5.5-16,2.9-34c-2.7-18,1.2-38.6,1.2-38.6s0.8,23.3,4.8,22.6
	s6-96.6,6-96.6s1.3,119.9,5.3,119.9s4-87.2,5.3-98.6s16.7-76.8,16.7-76.8l43.3-0.8c0,0,4,55.6,5.3,68.3c1.3,12.7-4,24,0,24.6
	s9.3-43.3,9.3-43.3s1.3,111.9,0,120.5c-1.3,8.7-3.5,20.8,0.6,20.7s16.1-190.9,16.1-190.9s2,69.6,6.7,67.6c4.7-2,10-55.3,10-55.3
	s2.7,50.6,10,50.6s8-40.6,8-40.6s2.7,47.3,6.7,47.3s4.7-12,4.7-15.3c0-3.3,5.3-39.3,5.3-39.3s6.7,49.9,10.7,50.6
	c4,0.7,9.3-12.7,9.3-12.7s0,38,4,44.6s9.3,40,14,38.6c4.7-1.3,0-37.3,0-37.3s4.7,12.7,8,10.7c3.3-2-4-26.6,0-34
	c4-7.3,14.7-18,16.7-6.7s-0.7,31.3,0,40.6c0.7,9.3,1.3,52.6,4.7,50.6c3.3-2-2-36.6,0-46s5.3-8.7,6-5.3c0.7,3.3,6.7,65.3,6.7,78.6
	c0,13.3-4,20,0,19.3s5.3-67.3,5.3-79.9s4-6.7,6-5.3c2,1.3-2.7-42.6,4-39.3s0,32.6,4.7,45.3c4.7,12.7,14,53.9,11.3,67.3
	s-5.1,48.6,0.5,49.9c5.5,1.3,0.2-28,5.5-24s5,12.3,5.7,30c0.7,17.6,3.3,57.9,5,70.3c1.7,12.3-2,19.3,0,26.3c2,7,6.3,13,6.3,19.3
	s4,13,4,18.3c0,5.3,0.3,8.7,0,19c-0.3,10.3,0.3,20,1.7,26.3c1.3,6.3-1,27.6,3.7,26.6c4.7-1,4.7-9,4.3-17c-0.3-8-2.7-18.3-2-28.6
	c0.7-10.3,3.3-23,2.1-29.6c-1.1-6.7-0.3-17.3,0.3-25.3c0.6-8,0.1-6.7,0-20.6c-0.1-14,2.6-20,4.9-25.6s8.7-13.3,8.7-20.3
	s0-15.3,0-15.3s10,25,6.7,43c-3.3,18-1.3,34.6,0.7,43c2,8.3,0.7,15,2.3,27c1.7,12,2.3,23.3,2.7,30.6c0.3,7.3,3,7,5,5
	s1.7-30.3,3.3-38c1.7-7.7,3-24.3,3-24.3s-2,37.6,0,49.6s6.3,19,3.3,24.6s4.7,8.1,4,22c-0.7,14-3,19.3-1.7,35.3s1.7,19.6,1.7,30.6
	c0,11,6.6,24.6,3.6,41c-3,16.3-2.6,33.3-3.6,44.3s-8,10.7-6.7,26.6c1.3,16,1.3,19.6,1.3,29c0,9.3,7.3,18,2.3,22.6
	s-15.7,1.7-15.7,11.3s5.7,21.6-3,33s-10.7,31-10.7,36.6s-3,16.6-3,34c0,17.3,0.3,31.3,1,38.6c0.7,7.3,6.7,45.3-6.3,57.3
	c-13,12-26,23-38,22c-12-1-29-8-41-6s-12-14-39-12c-27,2-33-29-31-48s7-5-2-33c-9-28-10-42-7-67.9s-1-59.9-1-59.9s-13,84.9-12,96.9
	s-2,14,0,34s11,39,1,59.9s-15,32.1-38,36s-34,11.1-46,0s-6-22-10-53s-12-33-12-57.9c0-25,3-52.9,3-52.9s-14,45-13,59.9
	c1,15-3,18,1,45s-25,82.9-31,81.9c-6-1,0.9-27-4.5-42c-5.5-15-8.5-55.9-11.5-54.9c-3,1-2,71.9-12,82.9c-10,11-34,10-41,6
	s2-79.9-4-79.9s-9,21-12,40c-3,19,1,33-14,41c-15,8-35,3-55,12s-22,12-51,9s-59,3-62,7s7,2-12,5c-19,3-24,11-31,11s-24-5-36-5
	s-12,5-24,5s-69-14-90-14s-37,6-61,5s-15-1-37-7s-32-17-39-10s-14,4-29,9c-15,5-34,0-58-4c-24-4-25,0-49-7s-18-2-33-12s0-7,5-16
	s11-20,5-21c-6-1-7-8-5-11c2-3-19-15-28-22s-8-87.9-10-113.9s-4-67.9-8-67.9s-7,68.9-5,89.9c2,21,7,47,0,67.9c-7,21,2,38-6,39
	c-8,1-14,4-16-25s-1-56.9-3-71.9c-2-15-3-45-6-46c-3-1,3,52.9,0,63.9c-3,11-2,32-2,40c0,8,0,18-8,27c-8,9-12-5-27-4
	c-15,1-23,2-21-28s6-44-1-71.9c-7-28-3-37-7-63.9s-3-4-4,26s-2,79.9-4,89.9s-2,31-2,52.9s-8,29-11,26s-1-48-4-79.9
	c-3-32-11-48-10-72.9c1-25,9-61.9,4-67.9s-4,24-6,29c-2,5-12-2-12-16s3-16,3-39s-7-29-8,8s-9,47-12,46s9-49-1-61.9s-16-26-16-26
	v360.6h1400V0.5H0z"/>
<path id="XMLID_3_" fill="#0B1331" d="M397.5,0.8c13.3,0.5,18.7,13.3,16.7,52.6s1.5,56.6,0.4,67.9c-1.1,11.3-5.2,30,0.2,30
	c5.4,0,6-65.3,7.4-75.3s7.3-20.6,7.3-36.6s13.3-28,16-12.7c2.7,15.3,7.3,40,10.7,36.6s1.3-38,6-36.6s2,59.9,5.3,58.6
	c3.3-1.3,3.3-26,7.3-19.3c4,6.7-4.7,49.9,2.7,50.6c7.3,0.7,4-105.2,10-110.6s12,28.6,11.3,51.3c-0.7,22.6-5.9,56.6,0.1,56.6
	s5.9-54.6,9.3-70.6s13.3-41.3,16-31.3s13.3,45.3,13.3,63.9s1.3,40,2.7,46.6c1.3,6.7,6-86.6,8-91.9s7.3,28.6,6.7,52.6
	c-0.7,24,5.3,48,9.3,45.3c4-2.7-3.3-69.9,6.7-87.9s24.7-27.3,26-14c1.3,13.3,0.7,22.6,4.7,22c4-0.7-1.3-13.3,2.7-25.3
	s6-22.6,17.7-22.6c11.7,0,11,47.3,13.7,56.6c2.7,9.3-2,38.6,4,41.3s2-41.3,3.3-55.3c1.3-14,5.3-29.3,12-26.6c6.7,2.7,6.7,8,12.7,24
	s14,25.3,10,35.3s2,42,4,51.9s2-38,5.3-51.9c3.3-14,5.3-24,4.7-34.6c-0.7-10.7,11.3-32,14-16.6c2.7,15.3-2,27.3,0,42s0.7,24.6,4,26
	c3.3,1.3,1.3-45.3,6.7-53.9s16-16,19.3-2.7c3.3,13.3,14,32,10,48s-4.9,60.6,0.9,67.3c5.8,6.7,3.1-65.9,7.8-75.3s2-20.6,6.7-33.3
	c4.7-12.7,0-42,0-42H397.5z"/>
<linearGradient id="XMLID_13_" gradientUnits="userSpaceOnUse" x1="0" y1="490.167" x2="1400" y2="490.167">
	<stop  offset="0" style="stop-color:#34688E"/>
	<stop  offset="0.3441" style="stop-color:#3D7296"/>
	<stop  offset="0.7581" style="stop-color:#B3F3FF"/>
	<stop  offset="1" style="stop-color:#7FBAD1"/>
</linearGradient>
<rect id="XMLID_21_" y="0.8" fill="url(#XMLID_13_)" width="1400" height="978.7"/>
<radialGradient id="XMLID_14_" cx="1123.0424" cy="487.1664" r="633.2695" gradientTransform="matrix(1 0 0 0.5922 0 198.685)" gradientUnits="userSpaceOnUse">
	<stop  offset="0" style="stop-color:#B3F3FF"/>
	<stop  offset="0.7634" style="stop-color:#34688E"/>
	<stop  offset="1" style="stop-color:#396D92"/>
</radialGradient>
<rect id="XMLID_22_" y="0.8" fill="url(#XMLID_14_)" width="1400" height="978.7"/>
</svg>
