<svg xmlns="http://www.w3.org/2000/svg" xmlns:xlink="http://www.w3.org/1999/xlink" viewBox="0 0 174.03 352.44"><defs><style>.cls-1{fill:url(#linear-gradient);}.cls-2{fill:url(#linear-gradient-2);}.cls-3{fill:url(#linear-gradient-3);}.cls-4{fill:url(#linear-gradient-4);}.cls-5{fill:url(#linear-gradient-5);}.cls-6{fill:url(#linear-gradient-6);}.cls-7{fill:url(#linear-gradient-7);}.cls-8{fill:url(#linear-gradient-8);}.cls-9{fill:url(#linear-gradient-9);}.cls-10{fill:url(#linear-gradient-10);}.cls-11{fill:url(#linear-gradient-11);}.cls-12{fill:url(#linear-gradient-12);}.cls-13{fill:url(#linear-gradient-13);}.cls-14{fill:url(#linear-gradient-14);}.cls-15{fill:url(#linear-gradient-15);}.cls-16{fill:url(#linear-gradient-16);}.cls-17{fill:url(#linear-gradient-17);}.cls-18{fill:url(#linear-gradient-18);}.cls-19{fill:url(#linear-gradient-19);}.cls-20{fill:url(#linear-gradient-20);}.cls-21{fill:url(#linear-gradient-21);}.cls-22{fill:url(#linear-gradient-22);}.cls-23{fill:url(#linear-gradient-23);}</style><linearGradient id="linear-gradient" x1="87.01" x2="87.01" y2="352.44" gradientUnits="userSpaceOnUse"><stop offset="0" stop-color="#7e5995"/><stop offset="0.33" stop-color="#e99bff"/><stop offset="0.61" stop-color="#f4e8ff"/><stop offset="0.8" stop-color="#77e4ce"/><stop offset="1" stop-color="#005b7e"/></linearGradient><linearGradient id="linear-gradient-2" x1="117.2" y1="-81.87" x2="-59.11" y2="151.67" xlink:href="#linear-gradient"/><linearGradient id="linear-gradient-3" x1="83.74" y1="-33.46" x2="-30.73" y2="207.98" xlink:href="#linear-gradient"/><linearGradient id="linear-gradient-4" x1="-38.51" y1="-121.54" x2="134.51" y2="196.87" xlink:href="#linear-gradient"/><linearGradient id="linear-gradient-5" x1="49.11" y1="-11.63" x2="168.18" y2="162.05" xlink:href="#linear-gradient"/><linearGradient id="linear-gradient-6" x1="92.91" y1="-13.41" x2="104.09" y2="137.9" xlink:href="#linear-gradient"/><linearGradient id="linear-gradient-7" x1="103.12" y1="91.12" x2="103.12" y2="352.44" xlink:href="#linear-gradient"/><linearGradient id="linear-gradient-8" x1="169.07" y1="-169.97" x2="1.81" y2="581.94" xlink:href="#linear-gradient"/><linearGradient id="linear-gradient-9" x1="47.28" y1="93.26" x2="65.7" y2="435.35" xlink:href="#linear-gradient"/><linearGradient id="linear-gradient-10" x1="28.29" y1="88.31" x2="28.29" y2="348.93" xlink:href="#linear-gradient"/><linearGradient id="linear-gradient-11" x1="-0.27" y1="40.32" x2="23.41" y2="555.41" xlink:href="#linear-gradient"/><linearGradient id="linear-gradient-12" x1="135.7" y1="84.74" x2="75.18" y2="203.15" xlink:href="#linear-gradient"/><linearGradient id="linear-gradient-13" x1="159.98" y1="29.71" x2="96.82" y2="228.39" xlink:href="#linear-gradient"/><linearGradient id="linear-gradient-14" x1="220.47" y1="19.66" x2="53.37" y2="236.76" xlink:href="#linear-gradient"/><linearGradient id="linear-gradient-15" x1="132.2" y1="126.95" x2="70.04" y2="406.69" xlink:href="#linear-gradient"/><linearGradient id="linear-gradient-16" x1="168.02" y1="21.43" x2="94.02" y2="415.15" xlink:href="#linear-gradient"/><linearGradient id="linear-gradient-17" x1="160.36" y1="77.38" x2="122.87" y2="364.87" xlink:href="#linear-gradient"/><linearGradient id="linear-gradient-18" x1="132.53" y1="179.63" x2="132.53" y2="310.29" xlink:href="#linear-gradient"/><linearGradient id="linear-gradient-19" x1="189.91" y1="139.86" x2="102.41" y2="247.1" xlink:href="#linear-gradient"/><linearGradient id="linear-gradient-20" x1="175.55" y1="117.18" x2="140.68" y2="271.12" xlink:href="#linear-gradient"/><linearGradient id="linear-gradient-21" x1="158.47" y1="30.21" x2="105.18" y2="431.33" xlink:href="#linear-gradient"/><linearGradient id="linear-gradient-22" x1="181.33" y1="124.6" x2="149.75" y2="289.73" xlink:href="#linear-gradient"/><linearGradient id="linear-gradient-23" x1="199.12" y1="121.67" x2="110.31" y2="370.34" xlink:href="#linear-gradient"/></defs><title>Asset 1</title><g id="Layer_2" data-name="Layer 2"><g id="Layer_1-2" data-name="Layer 1"><polygon class="cls-1" points="161.42 183.04 158.27 179.63 151.44 183.04 151.44 126.95 137.26 105.17 124.65 105.17 115.81 112.19 116.77 91.12 105.22 65.13 93.66 48.97 81.58 26.23 60.45 3.75 53.01 0 36.18 8.43 4.91 65.83 0 230.91 9.53 332.07 17.87 344.71 37.23 348.93 65.71 346.82 89.46 352.44 106.79 352.44 129.38 344.71 174.03 208.43 161.42 183.04"/><polygon class="cls-2" points="53.01 0 36.18 8.43 4.91 65.83 9.53 77.77 53.01 0"/><polygon class="cls-3" points="46.16 91.12 10.42 88.31 9.53 77.77 53.01 0 60.45 3.75 46.16 91.12"/><polygon class="cls-4" points="72.13 112.19 65.22 93.23 46.16 91.12 60.45 3.75 81.06 44.49 85.26 71.45 75.8 84.8 72.13 112.19"/><polygon class="cls-5" points="93.66 48.97 81.06 44.49 60.45 3.75 81.58 26.23 93.66 48.97"/><polygon class="cls-6" points="85.26 71.45 108.89 100.25 116.77 91.12 105.22 65.13 93.66 48.97 81.06 44.49 85.26 71.45"/><polygon class="cls-7" points="116.77 91.12 108.89 100.25 89.46 352.44 106.79 310.29 116.77 91.12"/><polygon class="cls-8" points="85.26 71.45 75.8 84.8 72.13 112.19 65.71 346.82 89.46 352.44 108.89 100.25 85.26 71.45"/><polygon class="cls-9" points="65.22 93.23 46.16 91.12 46.16 209.13 33.72 251.28 37.23 348.93 65.71 346.82 72.13 112.19 65.22 93.23"/><polygon class="cls-10" points="10.42 88.31 46.16 91.12 46.16 209.13 33.72 251.28 37.23 348.93 17.87 344.71 10.42 88.31"/><polygon class="cls-11" points="4.91 65.83 0 230.91 9.53 332.07 17.87 344.71 10.42 88.31 9.53 77.77 4.91 65.83"/><polygon class="cls-12" points="124.65 105.17 124.65 117.81 114.7 136.74 115.81 112.19 124.65 105.17"/><polygon class="cls-13" points="137.26 105.17 124.65 105.17 124.65 117.81 140.41 126.95 137.26 105.17"/><polygon class="cls-14" points="147.76 136.74 140.41 126.95 137.26 105.17 151.44 126.95 147.76 136.74"/><polygon class="cls-15" points="114.7 136.74 106.79 310.29 140.41 126.95 124.65 117.81 114.7 136.74"/><polygon class="cls-16" points="147.76 136.74 140.41 126.95 106.79 310.29 119.67 268.85 132.53 199.3 144.35 188.76 147.76 136.74"/><polygon class="cls-17" points="151.44 126.95 147.76 136.74 144.35 188.76 151.44 183.04 151.44 126.95"/><polygon class="cls-18" points="158.27 179.63 151.44 183.04 144.35 188.76 132.53 199.3 119.67 268.85 106.79 310.29 132.68 251.28 151.44 197.9 158.27 179.63"/><polygon class="cls-19" points="158.27 179.63 151.44 183.04 144.35 188.76 132.53 199.3 151.44 197.9 158.27 179.63"/><polygon class="cls-20" points="161.42 205.27 151.44 197.9 158.27 179.63 161.42 183.04 161.42 205.27"/><polygon class="cls-21" points="89.46 352.44 151.44 197.9 161.42 205.27 106.79 352.44 89.46 352.44"/><polygon class="cls-22" points="161.42 183.04 174.03 208.43 161.42 205.27 161.42 183.04"/><polygon class="cls-23" points="106.79 352.44 129.38 344.71 174.03 208.43 161.42 205.27 106.79 352.44"/></g></g></svg>