<svg xmlns="http://www.w3.org/2000/svg" viewBox="0 0 1417.67 1593.44"><defs><style>.cls-1{fill:#da7991;}.cls-2{fill:#f4edf2;}.cls-3{fill:#8e808d;}.cls-4{fill:#dbd2d9;}.cls-5{fill:#a396a2;}.cls-6{fill:#c6b9c4;}.cls-7{fill:#b7a5b3;}.cls-8{fill:#937f8a;}.cls-9{fill:#dac3d4;}.cls-10{fill:#ddd4db;}.cls-11{fill:#eae5e9;}.cls-12{fill:#d8ced5;}.cls-13{fill:#614253;}.cls-14{fill:#9e7e91;}.cls-15{fill:#513646;}.cls-16{fill:#cec4cc;}.cls-17{fill:#705465;}.cls-18{fill:#eae1e7;}.cls-19{fill:#c1abbc;}.cls-20{fill:#a3c46e;}.cls-21{fill:#968392;}.cls-22{fill:#c6b3c2;}.cls-23{fill:#c4bbc2;}</style></defs><title>Asset 1</title><g id="Layer_2" data-name="Layer 2"><g id="Layer_1-2" data-name="Layer 1"><rect class="cls-1" x="891.88" y="22.5" width="525.79" height="345.09"/><rect class="cls-2" x="891.88" y="73.38" width="525.79" height="45.06"/><rect class="cls-2" x="891.88" y="172.52" width="525.79" height="45.06"/><rect class="cls-2" x="891.88" y="271.66" width="525.79" height="45.06"/><path class="cls-3" d="M719.15,560.31h48a30,30,0,0,1,30,30v241a30,30,0,0,1-30,30h-48a0,0,0,0,1,0,0v-301A0,0,0,0,1,719.15,560.31Z"/><rect class="cls-4" x="461.65" y="455.56" width="305" height="510.5" rx="85.51"/><rect class="cls-5" x="379.65" y="455.56" width="305" height="510.5" rx="85.51"/><rect class="cls-6" x="690.15" y="544.56" width="63" height="63" rx="14.75"/><path class="cls-7" d="M750.65,559.06a7,7,0,0,1-7-7v-96a7,7,0,0,1,14,0v96A7,7,0,0,1,750.65,559.06Z"/><rect class="cls-7" x="706.15" y="544.56" width="63" height="63" rx="14.75"/><path class="cls-8" d="M737.65,591.4a6.54,6.54,0,0,1-5.4-2.84L720.17,571h0a6.56,6.56,0,0,1,5.41-10.28h24.15A6.56,6.56,0,0,1,755.14,571l-12.08,17.57A6.56,6.56,0,0,1,737.65,591.4Zm-12.07-25.69a1.56,1.56,0,0,0-1.39.84,1.54,1.54,0,0,0,.1,1.61h0l12.08,17.57a1.57,1.57,0,0,0,2.57,0L751,568.16a1.51,1.51,0,0,0,.09-1.61,1.53,1.53,0,0,0-1.38-.84Z"/><path class="cls-2" d="M300.39,1543a86.88,86.88,0,0,1-14.55-1.23,86,86,0,0,1-70.33-99.22l86.37-506.91A86,86,0,1,1,471.43,964.5l-86.36,506.9A86,86,0,0,1,300.39,1543Z"/><path class="cls-4" d="M411.65,867.76a86,86,0,0,1,34.28,84.08l-86.37,506.9a86,86,0,0,1-84.67,71.57,87.29,87.29,0,0,1-25.1-3.72,85.69,85.69,0,0,0,36,15.15,86,86,0,0,0,99.23-70.34l86.36-506.9A86,86,0,0,0,411.65,867.76Z"/><path class="cls-4" d="M637.74,1562.06a86,86,0,0,1-84.4-70L461.8,1009.67a86,86,0,1,1,169-32.07L722.33,1460a86.06,86.06,0,0,1-84.59,102Z"/><path class="cls-9" d="M308.85,635.21h0a24.87,24.87,0,0,0-35,3.5l-26.71,32.63a24.88,24.88,0,0,0,3.49,35h0a24.88,24.88,0,0,0,35-3.5l26.71-32.63A24.88,24.88,0,0,0,308.85,635.21Z"/><path class="cls-10" d="M210.62,895.6a66.54,66.54,0,0,1-51.25-109l129-156a66.55,66.55,0,0,1,102.57,84.81l-129,156A66.36,66.36,0,0,1,210.62,895.6Z"/><circle class="cls-2" cx="474.02" cy="413.06" r="216.13"/><path class="cls-11" d="M558,213.86c-92.46,13.35-163.5,92.9-163.5,189.06C394.51,508.43,480,594,585.56,594c2.33,0,4.64-.06,7-.14a216.19,216.19,0,0,0-34.5-380Z"/><circle class="cls-12" cx="625.05" cy="444.54" r="50.16" transform="translate(-85.41 155.5) rotate(-13.28)"/><ellipse class="cls-13" cx="431.87" cy="439.61" rx="185.71" ry="189.58"/><path class="cls-14" d="M260,439.61C260,336.11,338.24,252,435.4,250.07c-1.18,0-2.35,0-3.53,0C329.3,250,246.15,334.9,246.15,439.61S329.3,629.19,431.87,629.19c1.18,0,2.35,0,3.53-.05C338.24,627.22,260,543.1,260,439.61Z"/><path class="cls-15" d="M485.74,258.14a191.1,191.1,0,0,0,40.71,344.64c54.55-33,91.13-93.74,91.13-163.17C617.58,354,562,281.71,485.74,258.14Z"/><circle class="cls-2" cx="618.64" cy="434.94" r="50.16"/><path class="cls-16" d="M618.64,468.38a33.44,33.44,0,1,1,33.45-33.44A33.48,33.48,0,0,1,618.64,468.38Zm0-59.72a26.28,26.28,0,1,0,26.28,26.28A26.31,26.31,0,0,0,618.64,408.66Z"/><path class="cls-16" d="M629.39,431.35H607.9a3.58,3.58,0,1,1,0-7.16h21.49a3.58,3.58,0,1,1,0,7.16Z"/><path class="cls-16" d="M629.39,445.69H607.9a3.59,3.59,0,1,1,0-7.17h21.49a3.59,3.59,0,1,1,0,7.17Z"/><ellipse class="cls-17" cx="322.22" cy="321.23" rx="18.88" ry="11.4" transform="translate(-132.4 302.84) rotate(-42.6)"/><path class="cls-17" d="M313.1,370.07c-3.07-3.33-8.52-3.3-12.18.07s-4.16,8.8-1.09,12.13,8.51,3.3,12.17-.07S316.16,373.4,313.1,370.07Z"/><rect class="cls-4" x="250.44" y="548.56" width="425.43" height="64.74" rx="32.37"/><rect class="cls-6" x="445.44" y="548.56" width="230.43" height="64.74" rx="32.37"/><path class="cls-2" d="M282.44,580.93h0a32.37,32.37,0,0,1,32.37-32.37h-32a32.37,32.37,0,0,0-32.37,32.37h0a32.37,32.37,0,0,0,32.37,32.37h32A32.37,32.37,0,0,1,282.44,580.93Z"/><path class="cls-2" d="M289,613.3H637.33a0,0,0,0,1,0,0V871.38a174.18,174.18,0,0,1-174.18,174.18h0A174.18,174.18,0,0,1,289,871.38V613.3A0,0,0,0,1,289,613.3Z"/><path class="cls-4" d="M532.15,613.3V924a121.62,121.62,0,0,1-97.66,119.23,175.85,175.85,0,0,0,28.66,2.36h0A174.18,174.18,0,0,0,637.33,871.38V613.3Z"/><path class="cls-2" d="M718.48,874.6a66.29,66.29,0,0,1-46.26-18.71l-116.83-113a66.54,66.54,0,1,1,92.53-95.66l116.82,113A66.54,66.54,0,0,1,718.48,874.6Z"/><path class="cls-2" d="M718.54,874.61a66.55,66.55,0,0,1-33.88-123.86l132.17-78a66.54,66.54,0,1,1,67.64,114.62l-132.17,78A66.26,66.26,0,0,1,718.54,874.61Z"/><path class="cls-18" d="M817.19,820.86A71,71,0,0,1,781,688.7l33.54-19.79A71,71,0,1,1,886.74,791.2L853.2,811A70.59,70.59,0,0,1,817.19,820.86Z"/><circle class="cls-4" cx="889.81" cy="703.68" r="82.66"/><path class="cls-6" d="M845.38,610.69H947.67a0,0,0,0,1,0,0V760.51a0,0,0,0,1,0,0H900.4a55,55,0,0,1-55-55v-94.8A0,0,0,0,1,845.38,610.69Z"/><path class="cls-4" d="M891.88,1593.44a22.5,22.5,0,0,1-22.5-22.5V22.5a22.5,22.5,0,0,1,45,0V1570.94A22.5,22.5,0,0,1,891.88,1593.44Z"/><path class="cls-4" d="M899.83,600.31h27.54a50.41,50.41,0,0,1,50.41,50.41v81.07a50.41,50.41,0,0,1-50.41,50.41H899.83a0,0,0,0,1,0,0V600.31A0,0,0,0,1,899.83,600.31Z"/><path class="cls-2" d="M943,646.21H893a22.85,22.85,0,0,1-22.86-22.86h0A22.85,22.85,0,0,1,893,600.5H943a22.85,22.85,0,0,1,22.86,22.85h0A22.85,22.85,0,0,1,943,646.21Z"/><path class="cls-4" d="M943,600.5H928.52a22.86,22.86,0,0,1,22.86,22.85h0a22.86,22.86,0,0,1-22.86,22.86H943a22.85,22.85,0,0,0,22.86-22.86h0A22.85,22.85,0,0,0,943,600.5Z"/><rect class="cls-2" x="871.47" y="646.35" width="95.66" height="45.71" rx="22.86"/><path class="cls-2" d="M941.12,737.92h-50a22.87,22.87,0,0,1-22.86-22.86h0a22.87,22.87,0,0,1,22.86-22.86h50A22.86,22.86,0,0,1,964,715.06h0A22.86,22.86,0,0,1,941.12,737.92Z"/><path class="cls-2" d="M931.91,782h-48a22,22,0,0,1-22-22h0a22,22,0,0,1,22-22h48a22,22,0,0,1,22,22h0A22,22,0,0,1,931.91,782Z"/><path class="cls-4" d="M944.27,646.35H921.54a22.85,22.85,0,0,1,22.85,22.86h0a22.85,22.85,0,0,1-22.85,22.85h22.73a22.86,22.86,0,0,0,22.86-22.85h0A22.86,22.86,0,0,0,944.27,646.35Z"/><path class="cls-4" d="M941.11,692.2H918.38a22.86,22.86,0,0,1,22.86,22.86h0a22.86,22.86,0,0,1-22.86,22.86h22.73A22.86,22.86,0,0,0,964,715.06h0A22.86,22.86,0,0,0,941.11,692.2Z"/><path class="cls-4" d="M931.91,738.06H909.18a22,22,0,0,1,22,22h0a22,22,0,0,1-22,22h22.73a22,22,0,0,0,22-22h0A22,22,0,0,0,931.91,738.06Z"/><rect class="cls-2" x="819.55" y="610.5" width="52.29" height="125.21" rx="26.14"/><path class="cls-2" d="M210.7,895.61a66.43,66.43,0,0,1-53.23-26.56l-103-137a66.54,66.54,0,1,1,106.37-80l103,137A66.55,66.55,0,0,1,210.7,895.61Z"/><path class="cls-18" d="M136.59,801.48a70.87,70.87,0,0,1-56.8-28.34L50.9,734.73a71,71,0,0,1,113.5-85.34l28.89,38.42a71,71,0,0,1-56.7,113.67Z"/><path class="cls-4" d="M140,667.75h0a25.32,25.32,0,0,1-3.37-35.66l45-54.45a25.32,25.32,0,0,1,35.66-3.38h0a25.33,25.33,0,0,1,3.38,35.66l-45,54.45A25.33,25.33,0,0,1,140,667.75Z"/><path class="cls-16" d="M123.66,528.92a9.51,9.51,0,0,1-9.17-7L92.9,441.29a9.5,9.5,0,1,1,18.35-4.92L132.85,517a9.52,9.52,0,0,1-9.19,12Z"/><path class="cls-9" d="M123.66,532.42a13,13,0,0,1-12.55-9.64l-3-11.22a13,13,0,1,1,25.11-6.73l3,11.22a13,13,0,0,1-12.57,16.37Z"/><path class="cls-19" d="M197.33,704.29a24,24,0,0,1-29.46-17L129.7,544.83a24,24,0,1,1,46.46-12.44l38.17,142.45A24,24,0,0,1,197.33,704.29Z"/><path class="cls-9" d="M167.87,687.28,129.7,544.83a24.08,24.08,0,0,1,23.24-30.28H58.71a24.08,24.08,0,0,0-23.23,30.28L73.65,687.28a24.06,24.06,0,0,0,23.22,17.84H191.1A24.08,24.08,0,0,1,167.87,687.28Z"/><path class="cls-19" d="M191.1,705.62a24.59,24.59,0,0,1-23.71-18.21L129.22,545a24.55,24.55,0,1,1,47.42-12.7l38.17,142.45a24.54,24.54,0,0,1-17.35,30.06h0A24.48,24.48,0,0,1,191.1,705.62ZM152.94,515.05a23.84,23.84,0,0,0-6.11.81,23.59,23.59,0,0,0-16.64,28.85l38.17,142.44a23.51,23.51,0,0,0,28.84,16.66h0A23.54,23.54,0,0,0,213.85,675L175.67,532.52A23.58,23.58,0,0,0,152.94,515.05Z"/><path class="cls-2" d="M43.75,491a2.48,2.48,0,0,1-1.9-.88,83,83,0,0,1,0-108.09,2.5,2.5,0,1,1,3.79,3.25,78.05,78.05,0,0,0,0,101.59A2.5,2.5,0,0,1,43.75,491Z"/><path class="cls-2" d="M166.36,491a2.51,2.51,0,0,1-1.9-4.13,78.05,78.05,0,0,0,0-101.59,2.5,2.5,0,1,1,3.8-3.25,83.05,83.05,0,0,1,0,108.09A2.48,2.48,0,0,1,166.36,491Z"/><path class="cls-2" d="M68.13,472.3a2.5,2.5,0,0,1-1.85-.81,52.42,52.42,0,0,1,0-70.91A2.5,2.5,0,1,1,70,404a47.4,47.4,0,0,0,0,64.15,2.5,2.5,0,0,1-.16,3.53A2.43,2.43,0,0,1,68.13,472.3Z"/><path class="cls-2" d="M142,472.3a2.47,2.47,0,0,1-1.68-.65,2.51,2.51,0,0,1-.16-3.54,47.47,47.47,0,0,0,0-64.16,2.5,2.5,0,1,1,3.69-3.37,52.47,52.47,0,0,1,0,70.91A2.49,2.49,0,0,1,142,472.3Z"/><rect class="cls-6" x="291.15" y="673.56" width="191" height="153" rx="19.5"/><rect class="cls-11" x="267.15" y="673.56" width="191" height="153" rx="19.5"/><circle class="cls-20" cx="417.95" cy="714.68" r="12.87"/><path class="cls-9" d="M431.65,743.36h-27.4a4,4,0,0,0,0,7.95h27.4a4,4,0,0,0,0-7.95Z"/><path class="cls-1" d="M431.65,759.81h-27.4a4,4,0,0,0,0,7.94h27.4a4,4,0,0,0,0-7.94Z"/><path class="cls-9" d="M292.05,706.71l14.85,21.6a5,5,0,0,0,8.24,0L330,706.71a5,5,0,0,0-4.12-7.82h-29.7A5,5,0,0,0,292.05,706.71Z"/><path class="cls-9" d="M500,642.93H440.28a6.13,6.13,0,0,1-6.13-6.12h0a6.13,6.13,0,0,1,6.13-6.12H500a6.12,6.12,0,0,1,6.12,6.12h0A6.12,6.12,0,0,1,500,642.93Z"/><path class="cls-9" d="M467.09,664.37H440.28a6.13,6.13,0,0,1-6.13-6.12h0a6.13,6.13,0,0,1,6.13-6.13h26.81a6.13,6.13,0,0,1,6.13,6.13h0A6.13,6.13,0,0,1,467.09,664.37Z"/><ellipse class="cls-2" cx="81.67" cy="646.74" rx="81.12" ry="87.46" transform="translate(-180.49 49.9) rotate(-16.52)"/><path class="cls-14" d="M168.09,539.42,148.4,544.7a3.46,3.46,0,0,1-4.24-2.45h0a3.46,3.46,0,0,1,2.45-4.25l19.69-5.28a3.48,3.48,0,0,1,4.25,2.45h0A3.47,3.47,0,0,1,168.09,539.42Z"/><path class="cls-14" d="M172.3,555.13l-19.69,5.28a3.48,3.48,0,0,1-4.25-2.46h0a3.48,3.48,0,0,1,2.46-4.25l19.69-5.27a3.45,3.45,0,0,1,4.24,2.45h0A3.46,3.46,0,0,1,172.3,555.13Z"/><path class="cls-9" d="M618.13,640.11h0a24.72,24.72,0,0,0-.77,34.95l29,30.27a24.72,24.72,0,0,0,34.95.76h0a24.71,24.71,0,0,0,.76-34.94l-29-30.27A24.7,24.7,0,0,0,618.13,640.11Z"/><path class="cls-2" d="M299.81,1563a93.8,93.8,0,0,1-14.76-1.18,92.51,92.51,0,0,1-76.68-106l19-118.58a92.5,92.5,0,1,1,182.66,29.31l-19,118.58A92.51,92.51,0,0,1,299.81,1563Z"/><path class="cls-4" d="M357.68,1268a92.47,92.47,0,0,1,32.14,85.75l-19,118.58a92.52,92.52,0,0,1-91.22,77.86,93.21,93.21,0,0,1-39.06-8.59,92.1,92.1,0,0,0,44.54,20.24,93.8,93.8,0,0,0,14.76,1.18A92.51,92.51,0,0,0,391,1485.16l19-118.58A92.54,92.54,0,0,0,357.68,1268Z"/><path class="cls-2" d="M200.87,1415.63H333.76a49.44,49.44,0,0,1,49.44,49.44v76.75a0,0,0,0,1,0,0H107.54a0,0,0,0,1,0,0V1509A93.33,93.33,0,0,1,200.87,1415.63Z"/><path class="cls-4" d="M389.3,1530.21a68.08,68.08,0,1,0-122.14,0Z"/><path class="cls-7" d="M373.84,1518.23H113a26.36,26.36,0,0,0-26.35,26.36h0A26.35,26.35,0,0,0,113,1570.94H373.84a26.35,26.35,0,0,0,26.35-26.35h0A26.35,26.35,0,0,0,373.84,1518.23Z"/><path class="cls-2" d="M633,1563a92.53,92.53,0,0,1-91.13-77.31l-18.41-110.5a92.5,92.5,0,0,1,182.49-30.41l18.41,110.5A92.57,92.57,0,0,1,633,1563Z"/><path class="cls-4" d="M667.73,1530.21a68.07,68.07,0,1,0-122.14,0Z"/><path class="cls-2" d="M647.94,1415.63h44.78a72.61,72.61,0,0,1,72.61,72.61v53.57a0,0,0,0,1,0,0h-190a0,0,0,0,1,0,0v-53.57A72.61,72.61,0,0,1,647.94,1415.63Z"/><path class="cls-4" d="M692.72,1415.63h-34a72.61,72.61,0,0,1,72.61,72.61v53.57h34v-53.57A72.61,72.61,0,0,0,692.72,1415.63Z"/><path class="cls-7" d="M722.92,1518.23H549.75a26.36,26.36,0,0,0-26.35,26.36h0a26.35,26.35,0,0,0,26.35,26.35H722.92a26.35,26.35,0,0,0,26.35-26.35h0A26.36,26.36,0,0,0,722.92,1518.23Z"/><path class="cls-21" d="M756.92,1518.23H583.75a26.36,26.36,0,0,0-26.35,26.36h0a26.35,26.35,0,0,0,26.35,26.35H756.92a26.35,26.35,0,0,0,26.35-26.35h0A26.36,26.36,0,0,0,756.92,1518.23Z"/><path class="cls-9" d="M432.49,1230.31a21.31,21.31,0,0,1-4.59-.51l-96.16-21.48a21,21,0,0,1,9.16-41l96.15,21.48a21,21,0,0,1-4.56,41.5Z"/><path class="cls-9" d="M420.6,1283.54a20.72,20.72,0,0,1-4.6-.51l-96.15-21.48a21,21,0,0,1,9.16-41L425.16,1242a21,21,0,0,1-4.56,41.5Z"/><path class="cls-4" d="M324.24,1141.76l-17.81-4.32a55.76,55.76,0,0,0-13-1.56,55.09,55.09,0,0,0-53.67,42.24l-8.86,36.57a55.24,55.24,0,0,0,40.68,66.71l17.81,4.31a55.09,55.09,0,0,0,13,1.56h0A55.09,55.09,0,0,0,356.05,1245l8.86-36.58A55.3,55.3,0,0,0,324.24,1141.76Z"/><rect class="cls-18" x="251.31" y="1174.65" width="93.16" height="73.85" rx="27.76" transform="translate(-949.77 1215.69) rotate(-76.38)"/><path class="cls-22" d="M495.54,1197.9a21,21,0,0,1-3.42-41.72l168-28a21,21,0,0,1,6.9,41.43l-168,28A21.69,21.69,0,0,1,495.54,1197.9Z"/><path class="cls-22" d="M504.16,1246.58a21,21,0,0,1-3.43-41.72l168-28a21,21,0,0,1,6.91,41.43l-168,28A20.69,20.69,0,0,1,504.16,1246.58Z"/><path class="cls-23" d="M579.08,1111.56l-18,3.3a55.24,55.24,0,0,0-44.39,64.29l6.78,37a55.24,55.24,0,0,0,64.29,44.39l18-3.3a55.33,55.33,0,0,0,12.55-3.88h0A55.07,55.07,0,0,0,650.14,1193l-6.77-37A55.31,55.31,0,0,0,579.08,1111.56Z"/><rect class="cls-18" x="546.48" y="1139.48" width="73.85" height="93.16" rx="27.76" transform="translate(-204.08 124.47) rotate(-10.38)"/></g></g></svg>