<svg xmlns="http://www.w3.org/2000/svg" viewBox="0 0 432.4 176.03"><defs><style>.cls-1{fill:#c49a6c;}.cls-2{fill:#a97c50;}.cls-3{fill:#8dc63f;}.cls-4{fill:#7e4a36;}.cls-5{fill:#9b2c00;}.cls-6{fill:#da7991;}.cls-7{fill:#f4edf2;}.cls-8{fill:#8e808d;}.cls-9{fill:#dbd2d9;}.cls-10{fill:#a396a2;}.cls-11{fill:#c6b9c4;}.cls-12{fill:#b7a5b3;}.cls-13{fill:#937f8a;}.cls-14{fill:#dac3d4;}.cls-15{fill:#ddd4db;}.cls-16{fill:#eae5e9;}.cls-17{fill:#d8ced5;}.cls-18{fill:#614253;}.cls-19{fill:#9e7e91;}.cls-20{fill:#513646;}.cls-21{fill:#cec4cc;}.cls-22{fill:#705465;}.cls-23{fill:#eae1e7;}.cls-24{fill:#c1abbc;}.cls-25{fill:#a3c46e;}.cls-26{fill:#968392;}.cls-27{fill:#c6b3c2;}.cls-28{fill:#c4bbc2;}</style></defs><title>Layer 1</title><g id="Layer_2" data-name="Layer 2"><g id="Layer_1-2" data-name="Layer 1"><g id="OBJECTS"><polygon class="cls-1" points="144.12 146.04 125.27 146.04 0.07 146.04 0.07 176.03 125.27 176.03 144.12 176.03 432.39 176.03 432.39 146.04 144.12 146.04"/><path class="cls-2" d="M70.57,168.6c-2.1,3-5.57,4.25-7.76,2.74s-2.26-5.2-.17-8.23,5.57-4.26,7.76-2.74S72.67,165.57,70.57,168.6Z"/><path class="cls-2" d="M25.13,165.52c1.94,2.31,2.06,5.4.26,6.92s-4.83.86-6.77-1.45-2.06-5.4-.26-6.91S23.18,163.21,25.13,165.52Z"/><path class="cls-2" d="M33.61,169.47c1,1.24,1.11,2.9.14,3.72s-2.59.46-3.63-.78S29,169.51,30,168.7,32.57,168.23,33.61,169.47Z"/><path class="cls-2" d="M58.3,170.44a2.7,2.7,0,0,1-3.44,1.41c-1.09-.59-1.33-2.27-.52-3.68a2.7,2.7,0,0,1,3.44-1.41C58.88,167.35,59.11,169.08,58.3,170.44Z"/><path class="cls-2" d="M98.83,173.23a2.7,2.7,0,0,1-3.44,1.41c-1.09-.59-1.33-2.28-.53-3.68a2.72,2.72,0,0,1,3.45-1.41C99.41,170.14,99.63,171.82,98.83,173.23Z"/><path class="cls-2" d="M97.06,165.85c-1.47,1.9-3.86,2.51-5.34,1.37s-1.48-3.62,0-5.52,3.86-2.51,5.34-1.37S98.54,164,97.06,165.85Z"/><path class="cls-2" d="M118.2,165.2c2.17,1.85,2.77,4.72,1.32,6.41s-4.37,1.56-6.54-.29-2.77-4.72-1.32-6.41S116,163.34,118.2,165.2Z"/><path class="cls-2" d="M128,169.2c1.38,1.17,1.76,3,.84,4.07s-2.77,1-4.15-.19-1.76-3-.84-4.07S126.58,168,128,169.2Z"/><polygon class="cls-3" points="144.12 150.62 144.13 150.62 144.12 150.44 144.12 150.62"/><path class="cls-2" d="M214.74,168.6c-2.1,3-5.57,4.25-7.76,2.74s-2.27-5.2-.17-8.23,5.57-4.26,7.76-2.74S216.8,165.57,214.74,168.6Z"/><path class="cls-2" d="M169.26,165.52c2,2.31,2.06,5.4.27,6.92s-4.83.86-6.77-1.45-2.06-5.4-.26-6.91S167.32,163.21,169.26,165.52Z"/><path class="cls-2" d="M177.74,169.47c1,1.24,1.11,2.9.14,3.72s-2.59.46-3.64-.78-1.1-2.9-.14-3.71S176.74,168.23,177.74,169.47Z"/><path class="cls-2" d="M202.44,170.44a2.7,2.7,0,0,1-3.44,1.41c-1.09-.59-1.33-2.27-.53-3.68a2.71,2.71,0,0,1,3.45-1.41C203,167.35,203.24,169.08,202.44,170.44Z"/><path class="cls-2" d="M243,173.23a2.7,2.7,0,0,1-3.44,1.41c-1.09-.59-1.33-2.28-.53-3.68a2.71,2.71,0,0,1,3.44-1.41C243.53,170.14,243.74,171.82,243,173.23Z"/><path class="cls-2" d="M241.2,165.85c-1.47,1.9-3.86,2.51-5.34,1.37s-1.49-3.62,0-5.52,3.87-2.51,5.35-1.37S242.67,164,241.2,165.85Z"/><path class="cls-2" d="M262.34,165.2c2.17,1.85,2.76,4.72,1.32,6.41s-4.37,1.56-6.54-.29-2.77-4.72-1.33-6.41S260.16,163.34,262.34,165.2Z"/><path class="cls-2" d="M272.1,169.2c1.38,1.17,1.75,3,.84,4.07s-2.77,1-4.15-.19-1.76-3-.84-4.07S270.74,168,272.1,169.2Z"/><polygon class="cls-3" points="288.25 150.62 288.26 150.62 288.25 150.44 288.25 150.62"/><path class="cls-2" d="M288.25,146.08H.07v21.8c1,.08,2.12.42,3.19.42,3.17,0,6.64-.12,9.46-1.76,3.11-1.8,3.41-5.62,7.64-5.43,2.89.12,5.1,2.31,7.76,3.16,3.25,1,6.61,1.23,9.41-.53,2.38-1.5,3.67-4.27,6.68-4.78,2.7-.45,3.58,3.46,6.63,3.58,6.25.24,9.1-2.45,10.92-3.35,4.11-2,7.58-2.9,11.32-1.42,4.76,1.89.63,9.37,5.6,8.84,6.68-.72,11-8.4,16.11-8.6,6-.24,7.74,2.63,11.93,3.82,4,1.13,5-1.92,9-.66,3.25,1,5.85,4.4,9.5,4.44,2,0,2.57-1.85,9.64-1.18,3.15.36,2.36,3.35,9.22,3.62,1,.08,2.21.25,3.28.25,3.17,0,6.64-.12,9.46-1.76,3.11-1.8,3.41-5.62,7.64-5.43,2.89.12,5.1,2.31,7.76,3.16,3.25,1,6.61,1.23,9.41-.53,2.38-1.5,3.67-4.27,6.68-4.78,2.7-.45,3.58,3.46,6.62,3.58,6.26.24,9.11-2.45,10.93-3.35,4.11-2,7.58-2.9,11.31-1.42,4.77,1.89.64,9.37,5.61,8.84,6.68-.72,11-8.4,16.1-8.6,6-.24,7.75,2.63,11.93,3.82,4,1.13,5.05-1.92,9-.66,3.26,1,5.86,4.4,9.51,4.44,2,0,2.57-1.85,9.64-1.18,3.15.36,2.35,3.35,9.21,3.62V168c1.11.14,2.51.34,3.28.34,3.17,0,6.65-.12,9.46-1.76,3.11-1.8,3.41-5.62,7.64-5.43,2.9.12,5.1,2.31,7.76,3.16,3.26,1,6.61,1.23,9.42-.53,2.38-1.5,3.67-4.27,6.68-4.78,2.7-.45,3.57,3.46,6.62,3.58,6.26.24,9.11-2.45,10.93-3.35,4.11-2,7.58-2.9,11.31-1.42,4.77,1.89.64,9.37,5.61,8.84,6.68-.72,11-8.4,16.1-8.6,6-.24,7.75,2.63,11.93,3.82,4,1.13,5-1.92,9-.66,3.26,1,5.86,4.4,9.5,4.44,2,0,2.57-1.85,9.65-1.18,3.14.36,2.35,3.35,9.21,3.62v-22Z"/><rect class="cls-4" x="0.07" y="146.04" width="432.32" height="6.44"/><path class="cls-2" d="M358.85,168.6c-2.1,3-5.57,4.25-7.76,2.74s-2.27-5.2-.17-8.23,5.57-4.26,7.76-2.74S360.94,165.57,358.85,168.6Z"/><path class="cls-2" d="M313.4,165.52c1.94,2.31,2.06,5.4.27,6.92s-4.83.86-6.77-1.45-2.06-5.4-.27-6.91S311.46,163.21,313.4,165.52Z"/><path class="cls-2" d="M321.89,169.47c1,1.24,1.11,2.9.14,3.72s-2.59.46-3.64-.78-1.1-2.9-.14-3.71S320.84,168.23,321.89,169.47Z"/><path class="cls-2" d="M346.58,170.44a2.7,2.7,0,0,1-3.44,1.41c-1.09-.59-1.33-2.27-.53-3.68a2.7,2.7,0,0,1,3.44-1.41C347.14,167.35,347.38,169.08,346.58,170.44Z"/><path class="cls-2" d="M387.1,173.23a2.7,2.7,0,0,1-3.44,1.41c-1.1-.59-1.32-2.28-.52-3.68a2.71,2.71,0,0,1,3.44-1.41C387.67,170.14,387.91,171.82,387.1,173.23Z"/><path class="cls-2" d="M385.34,165.85c-1.47,1.9-3.86,2.51-5.34,1.37s-1.49-3.62,0-5.52,3.86-2.51,5.35-1.37S386.81,164,385.34,165.85Z"/><path class="cls-2" d="M406.48,165.2c2.17,1.85,2.76,4.72,1.32,6.41s-4.37,1.56-6.54-.29-2.77-4.72-1.33-6.41S404.3,163.34,406.48,165.2Z"/><path class="cls-2" d="M416.24,169.2c1.38,1.17,1.75,3,.84,4.07s-2.78,1-4.16-.19-1.75-3-.84-4.07S414.86,168,416.24,169.2Z"/><polygon class="cls-3" points="432.39 150.62 432.4 150.62 432.39 150.44 432.39 150.62"/><path class="cls-5" d="M432.39,132.6v13.48H.08s-1-23.51,3.58-33.75c0,0,0,18.18,2.62,27.38,0,0-.48-10,2.86-15.47,0,0,0,8.78,2.15,13.8a19.58,19.58,0,0,0,2.62-8.85s2.15,8,2.15,12c0,0,.24-17.76,8.59-23.61,0,0-5.07,13.58-2.77,21.52a86.46,86.46,0,0,1,4.79-7.73l1.07,7.29,3.1-4.38,1,5.43s2.57-6.27,0-18.18a39.53,39.53,0,0,1,5.69,19.85s4.3-17.76,10-22.15c0,0-4.05,13.17-3.58,21.52l3.58-8.35L51.11,141s-1-9,4.06-13.37c0,0-.21,9.19,3.59,13a24,24,0,0,0,2.36-20.11s5.94,6.42,5.49,18.81L69.74,133l2.36,8.78s3.64-20.06,9.33-25.08c0,0-3.34,13.38-2.15,22.15,0,0,1.2-12.33,7.64-17.76,0,0-2.63,9.19,0,17.76a17.59,17.59,0,0,0,3.69-9.68s3.23,5.5,2.75,10.52c0,0,4.92-12.12,1-22.57,0,0,6.6,8.36,6.13,25.29l3.57-8.78,2.68,7.31,2.62-7.31,3.1,7.1s1.15-6.68-1.57-16.3c0,0,5.63,6.84,6.58,14.21,0,0,1.7-14,5.86-20.89,0,0-1.32,18.11,1.78,23.19l1.22-7.31,3,7.73s.56-8.57,3.18-13.79c0,0,1.2,7.94,3.11,12.12,0,0,2.38-11.06,0-20.66.32.68,5.69,12.34,5,20.45l3.71-6.62c.33-7.12,1.23-15.46,3.48-20.55,0,0,0,18.18,2.63,27.38,0,0-.48-10,2.86-15.47,0,0,0,8.78,2.15,13.8a19.58,19.58,0,0,0,2.62-8.85s2.15,8,2.15,12c0,0,.24-17.76,8.59-23.61,0,0-5.07,13.58-2.77,21.52a88.72,88.72,0,0,1,4.78-7.73l1.09,7.31,3.1-4.38,1,5.43s2.57-6.27,0-18.18a39.5,39.5,0,0,1,5.66,19.85s4.29-17.76,10-22.15c0,0-4.06,13.17-3.58,21.52l3.65-8.37,3.58,8.56s-1-9,4.06-13.37c0,0-.21,9.19,3.59,13a24.07,24.07,0,0,0,2.29-20.11s5.93,6.42,5.49,18.81l3.13-6.27,2.36,8.78s3.6-20.06,9.33-25.08c0,0-3.34,13.38-2.15,22.15,0,0,1.19-12.33,7.63-17.76,0,0-2.62,9.19,0,17.76a17.53,17.53,0,0,0,3.7-9.68s3.22,5.5,2.75,10.52c0,0,4.92-12.12,1-22.57,0,0,6.6,8.36,6.12,25.29l3.58-8.78,2.63,7.31,2.62-7.31,3.1,7.1s1.19-6.67-1.54-16.3c0,0,5.63,6.84,6.58,14.21,0,0,1.7-14,5.86-20.89,0,0-1.33,18.11,1.78,23.19l1.22-7.31,3,7.73s.56-8.57,3.18-13.79c0,0,1.2,7.94,3.1,12.12,0,0,2.39-11.06,0-20.66.32.68,5.7,12.34,5,20.45l3.76-7.42c.36-7,1.25-14.86,3.44-19.75,0,0,0,18.18,2.63,27.38,0,0-.48-10,2.86-15.47,0,0,0,8.78,2.15,13.8a19.58,19.58,0,0,0,2.62-8.85s2.15,8,2.15,12c0,0,.24-17.76,8.59-23.61,0,0-5.07,13.58-2.78,21.52a86.46,86.46,0,0,1,4.79-7.73l1.09,7.31,3.1-4.38,1,5.43s2.58-6.27,0-18.18a39.41,39.41,0,0,1,5.67,19.85s4.29-17.76,10-22.15c0,0-4.06,13.17-3.58,21.52l3.58-8.35,3.58,8.56s-1-9,4.05-13.37c0,0-.2,9.19,3.6,13a24.09,24.09,0,0,0,2.37-20.13s5.93,6.42,5.49,18.81L358,133l2.35,8.78s3.61-20.06,9.37-25.08c0,0-3.34,13.38-2.15,22.15,0,0,1.19-12.33,7.63-17.76,0,0-2.62,9.19,0,17.76a17.68,17.68,0,0,0,3.7-9.68s3.22,5.5,2.74,10.52c0,0,4.93-12.12,1-22.57,0,0,6.61,8.36,6.13,25.29l3.58-8.78L395,141l2.63-7.31,3.1,7.1s1.15-6.68-1.57-16.3c0,0,5.63,6.84,6.58,14.21,0,0,1.69-14,5.86-20.89,0,0-1.33,18.11,1.77,23.19l1.22-7.31,3,7.73s.56-8.57,3.18-13.79c0,0,1.19,7.94,3.1,12.12,0,0,2.39-11.06,0-20.66.32.68,5.7,12.34,5,20.45Z"/></g><g id="Layer_1-2-2" data-name="Layer 1-2"><rect class="cls-6" x="155.05" y="2.18" width="51.02" height="33.49"/><rect class="cls-7" x="155.05" y="7.12" width="51.02" height="4.37"/><rect class="cls-7" x="155.05" y="16.74" width="51.02" height="4.37"/><rect class="cls-7" x="155.05" y="26.36" width="51.02" height="4.37"/><path class="cls-8" d="M138.29,54.37H143a2.91,2.91,0,0,1,2.91,2.91V80.66A2.91,2.91,0,0,1,143,83.58h-4.66V54.37Z"/><rect class="cls-9" x="113.31" y="44.2" width="29.6" height="49.54" rx="8.3"/><rect class="cls-10" x="105.35" y="44.2" width="29.6" height="49.54" rx="8.3"/><rect class="cls-11" x="135.48" y="52.84" width="6.11" height="6.11" rx="1.43"/><path class="cls-12" d="M141.35,54.25a.68.68,0,0,1-.68-.68V44.25a.68.68,0,0,1,1.36,0h0v9.32A.69.69,0,0,1,141.35,54.25Z"/><rect class="cls-12" x="137.03" y="52.84" width="6.11" height="6.11" rx="1.43"/><path class="cls-13" d="M140.09,57.39a.66.66,0,0,1-.53-.28l-1.17-1.7h0a.65.65,0,0,1,.16-.89.7.7,0,0,1,.37-.11h2.34a.64.64,0,0,1,.64.63.63.63,0,0,1-.12.37l-1.17,1.7A.64.64,0,0,1,140.09,57.39Zm-1.17-2.5a.16.16,0,0,0-.14.08.18.18,0,0,0,0,.16h0L140,56.84a.17.17,0,0,0,.22,0l0,0,1.17-1.71a.14.14,0,0,0,0-.16.14.14,0,0,0-.13-.08Z"/><path class="cls-7" d="M97.66,149.72A8.36,8.36,0,0,1,89.42,140L97.8,90.79a8.35,8.35,0,1,1,16.49,2.61l0,.19-8.38,49.18A8.35,8.35,0,0,1,97.66,149.72Z"/><path class="cls-9" d="M108.45,84.2a8.33,8.33,0,0,1,3.33,8.16l-8.38,49.19a8.34,8.34,0,0,1-10.65,6.58,8.34,8.34,0,0,0,13.12-5.35h0l8.38-49.18A8.35,8.35,0,0,0,108.45,84.2Z"/><path class="cls-9" d="M130.39,151.57a8.34,8.34,0,0,1-8.19-6.79L113.32,98a8.35,8.35,0,0,1,16.4-3.11h0l8.88,46.81a8.34,8.34,0,0,1-6.66,9.75,8.06,8.06,0,0,1-1.55.15Z"/><path class="cls-14" d="M98.48,61.64h0a2.41,2.41,0,0,0-3.4.34h0l-2.59,3.16a2.42,2.42,0,0,0,.34,3.4h0a2.42,2.42,0,0,0,3.4-.34L98.82,65A2.41,2.41,0,0,0,98.48,61.64Z"/><path class="cls-15" d="M89,86.9a6.45,6.45,0,0,1-5-10.57L96.49,61.19a6.46,6.46,0,0,1,10,8.23L93.93,84.56A6.44,6.44,0,0,1,89,86.9Z"/><circle class="cls-7" cx="114.51" cy="40.08" r="20.97"/><path class="cls-16" d="M122.66,20.75a18.54,18.54,0,0,0,2.67,36.89l.68,0a21,21,0,0,0-3.35-36.87Z"/><circle class="cls-17" cx="129.16" cy="43.14" r="4.87"/><ellipse class="cls-18" cx="110.42" cy="42.66" rx="18.02" ry="18.4"/><path class="cls-19" d="M93.74,42.66c0-10,7.59-18.21,17-18.39h-.34a18.39,18.39,0,0,0,0,36.78h.34C101.33,60.86,93.74,52.7,93.74,42.66Z"/><path class="cls-20" d="M115.64,25.05a18.55,18.55,0,0,0,4,33.44,18.54,18.54,0,0,0-4-33.44Z"/><circle class="cls-7" cx="128.54" cy="42.2" r="4.87"/><path class="cls-21" d="M128.54,45.45a3.25,3.25,0,1,1,3.25-3.25A3.25,3.25,0,0,1,128.54,45.45Zm0-5.8a2.55,2.55,0,1,0,2.55,2.55A2.55,2.55,0,0,0,128.54,39.65Z"/><path class="cls-21" d="M129.58,41.86H127.5a.35.35,0,0,1,0-.7h2.08a.35.35,0,1,1,0,.7Z"/><path class="cls-21" d="M129.58,43.25H127.5a.35.35,0,0,1-.37-.33.35.35,0,0,1,.33-.37h2.12a.35.35,0,0,1,0,.7Z"/><ellipse class="cls-22" cx="99.78" cy="31.17" rx="1.83" ry="1.11" transform="translate(5.24 75.76) rotate(-42.6)"/><path class="cls-22" d="M98.89,35.91a.88.88,0,0,0-1.29,1.18.88.88,0,0,0,1.29-1.18Z"/><path class="cls-9" d="M96,53.23h35a3.13,3.13,0,0,1,3.14,3.14h0A3.14,3.14,0,0,1,131,59.51H96a3.15,3.15,0,0,1-3.14-3.14h0A3.14,3.14,0,0,1,96,53.23Z"/><path class="cls-11" d="M114.87,53.23H131a3.13,3.13,0,0,1,3.14,3.14h0A3.14,3.14,0,0,1,131,59.51H114.87a3.15,3.15,0,0,1-3.14-3.14h0A3.14,3.14,0,0,1,114.87,53.23Z"/><path class="cls-7" d="M95.92,56.37h0a3.13,3.13,0,0,1,3.14-3.14H96a3.14,3.14,0,0,0-3.14,3.14h0A3.15,3.15,0,0,0,96,59.51h3.11A3.14,3.14,0,0,1,95.92,56.37Z"/><path class="cls-7" d="M96.55,59.51h33.8v25a16.89,16.89,0,0,1-16.9,16.9h0a16.9,16.9,0,0,1-16.9-16.9v-25Z"/><path class="cls-9" d="M120.15,59.51V89.66a11.81,11.81,0,0,1-9.48,11.57,17.28,17.28,0,0,0,2.78.23h0a16.9,16.9,0,0,0,16.9-16.9h0v-25Z"/><path class="cls-7" d="M138.23,84.87a6.42,6.42,0,0,1-4.49-1.82l-11.34-11a6.46,6.46,0,0,1,9-9.28l11.34,11a6.46,6.46,0,0,1-4.49,11.1Z"/><path class="cls-7" d="M138.23,84.87a6.46,6.46,0,0,1-3.28-12l12.82-7.57a6.46,6.46,0,1,1,6.56,11.12L141.51,84A6.4,6.4,0,0,1,138.23,84.87Z"/><path class="cls-23" d="M147.81,79.65a6.89,6.89,0,0,1-3.52-12.82l3.26-1.92a6.89,6.89,0,1,1,7,11.86h0l-3.25,1.92A6.82,6.82,0,0,1,147.81,79.65Z"/><circle class="cls-9" cx="154.85" cy="68.28" r="8.02"/><path class="cls-11" d="M150.54,59.26h9.93V73.79h-4.59a5.33,5.33,0,0,1-5.34-5.33h0v-9.2Z"/><path class="cls-9" d="M155.05,154.62a2.19,2.19,0,0,1-2.18-2.19V2.18a2.19,2.19,0,0,1,4.37,0V152.43A2.19,2.19,0,0,1,155.05,154.62Z"/><path class="cls-9" d="M155.82,58.25h2.68a4.89,4.89,0,0,1,4.89,4.89V71a4.89,4.89,0,0,1-4.89,4.89h-2.68V58.25Z"/><path class="cls-7" d="M160,62.7h-4.85a2.22,2.22,0,0,1-2.22-2.21h0a2.22,2.22,0,0,1,2.22-2.22H160a2.21,2.21,0,0,1,2.22,2.21h0A2.21,2.21,0,0,1,160,62.7Z"/><path class="cls-9" d="M160,58.27h-1.4a2.22,2.22,0,0,1,2.22,2.22h0a2.22,2.22,0,0,1-2.22,2.21H160a2.21,2.21,0,0,0,2.22-2.21h0A2.21,2.21,0,0,0,160,58.27Z"/><rect class="cls-7" x="153.07" y="62.72" width="9.28" height="4.44" rx="2.22"/><path class="cls-7" d="M159.83,71.6H155a2.21,2.21,0,0,1-2.22-2.22h0A2.21,2.21,0,0,1,155,67.17h4.85a2.21,2.21,0,0,1,2.22,2.21h0a2.21,2.21,0,0,1-2.22,2.22Z"/><path class="cls-7" d="M158.94,75.88h-4.66a2.14,2.14,0,0,1-2.14-2.13h0a2.14,2.14,0,0,1,2.14-2.14h4.66a2.13,2.13,0,0,1,2.13,2.14h0a2.13,2.13,0,0,1-2.13,2.13Z"/><path class="cls-9" d="M160.14,62.72h-2.21a2.21,2.21,0,0,1,2.22,2.21h0a2.21,2.21,0,0,1-2.22,2.21h2.21a2.21,2.21,0,0,0,2.21-2.21h0A2.21,2.21,0,0,0,160.14,62.72Z"/><path class="cls-9" d="M159.83,67.17h-2.21a2.21,2.21,0,0,1,2.22,2.21h0a2.21,2.21,0,0,1-2.22,2.22h2.21a2.21,2.21,0,0,0,2.22-2.21h0a2.21,2.21,0,0,0-2.22-2.21Z"/><path class="cls-9" d="M158.94,71.62h-2.21a2.13,2.13,0,0,1,2.14,2.13h0a2.14,2.14,0,0,1-2.14,2.14h2.21a2.13,2.13,0,0,0,2.13-2.14h0A2.13,2.13,0,0,0,158.94,71.62Z"/><rect class="cls-7" x="148.03" y="59.24" width="5.07" height="12.15" rx="2.54"/><path class="cls-7" d="M89,86.9a6.43,6.43,0,0,1-5.17-2.57L73.8,71a6.46,6.46,0,1,1,10.32-7.76h0l10,13.29A6.45,6.45,0,0,1,89,86.9Z"/><path class="cls-23" d="M81.77,77.77A6.91,6.91,0,0,1,76.25,75l-2.8-3.73a6.89,6.89,0,0,1,11-8.28h0l2.81,3.73a6.89,6.89,0,0,1-5.5,11Z"/><path class="cls-9" d="M82.1,64.79h0a2.45,2.45,0,0,1-.33-3.46h0l4.37-5.28a2.45,2.45,0,0,1,3.45-.33h0a2.46,2.46,0,0,1,.32,3.46l-4.36,5.29a2.46,2.46,0,0,1-3.46.32Z"/><path class="cls-21" d="M80.51,51.32a.92.92,0,0,1-.89-.68l-2.09-7.82a.92.92,0,1,1,1.77-.5v0l2.09,7.83a.92.92,0,0,1-.65,1.13,1,1,0,0,1-.24,0Z"/><path class="cls-14" d="M80.51,51.66a1.26,1.26,0,0,1-1.22-.93L79,49.64a1.26,1.26,0,0,1,2.43-.7V49l.29,1.08a1.26,1.26,0,0,1-.89,1.55,1.24,1.24,0,0,1-.33,0Z"/><path class="cls-24" d="M87.66,68.34A2.33,2.33,0,0,1,84.8,66.7h0L81.1,52.87a2.33,2.33,0,1,1,4.5-1.21l3.71,13.82a2.34,2.34,0,0,1-1.64,2.86Z"/><path class="cls-14" d="M84.8,66.69,81.1,52.87A2.33,2.33,0,0,1,82.75,50a2.47,2.47,0,0,1,.6-.08H74.21a2.33,2.33,0,0,0-2.33,2.34,2.46,2.46,0,0,0,.07.6l3.71,13.82a2.32,2.32,0,0,0,2.25,1.73h9.14A2.33,2.33,0,0,1,84.8,66.69Z"/><path class="cls-24" d="M87.05,68.47a2.39,2.39,0,0,1-2.3-1.77l-3.7-13.82a2.38,2.38,0,1,1,4.58-1.32s0,.06,0,.09l3.7,13.82a2.38,2.38,0,0,1-1.68,2.92h0A2.57,2.57,0,0,1,87.05,68.47ZM83.35,50a2,2,0,0,0-.59.08,2.28,2.28,0,0,0-1.62,2.79l3.71,13.83a2.27,2.27,0,0,0,2.79,1.61h0a2.27,2.27,0,0,0,1.61-2.79l-3.7-13.83A2.28,2.28,0,0,0,83.35,50Z"/><path class="cls-7" d="M72.76,47.64a.27.27,0,0,1-.19-.08,8.05,8.05,0,0,1,0-10.49.24.24,0,0,1,.39.29l0,0a7.58,7.58,0,0,0,0,9.86.23.23,0,0,1,0,.34A.22.22,0,0,1,72.76,47.64Z"/><path class="cls-7" d="M84.65,47.64a.24.24,0,0,1-.18-.4,7.58,7.58,0,0,0,0-9.86.23.23,0,0,1,0-.34.25.25,0,0,1,.34,0h0a8.08,8.08,0,0,1,0,10.49A.27.27,0,0,1,84.65,47.64Z"/><path class="cls-7" d="M75.12,45.83a.25.25,0,0,1-.18-.08,5.1,5.1,0,0,1,0-6.88.25.25,0,0,1,.35,0,.24.24,0,0,1,0,.35,4.62,4.62,0,0,0,0,6.23.24.24,0,0,1,0,.34A.27.27,0,0,1,75.12,45.83Z"/><path class="cls-7" d="M82.29,45.83a.23.23,0,0,1-.16-.06.25.25,0,0,1,0-.35,4.59,4.59,0,0,0,0-6.22.25.25,0,0,1,0-.35.24.24,0,0,1,.34,0h0a5.1,5.1,0,0,1,0,6.88A.25.25,0,0,1,82.29,45.83Z"/><rect class="cls-11" x="96.76" y="65.36" width="18.53" height="14.85" rx="1.89"/><rect class="cls-16" x="94.43" y="65.36" width="18.53" height="14.85" rx="1.89"/><circle class="cls-25" cx="109.07" cy="69.35" r="1.25"/><path class="cls-14" d="M110.4,72.13h-2.66a.39.39,0,0,0,0,.77h2.66a.39.39,0,0,0,0-.77Z"/><path class="cls-6" d="M110.4,73.73h-2.66a.38.38,0,0,0-.34.43.38.38,0,0,0,.34.34h2.66a.39.39,0,0,0,.33-.44A.38.38,0,0,0,110.4,73.73Z"/><path class="cls-14" d="M96.85,68.57l1.44,2.1a.48.48,0,0,0,.68.12.46.46,0,0,0,.12-.12l1.44-2.1a.47.47,0,0,0-.4-.75H97.25a.47.47,0,0,0-.48.48A.43.43,0,0,0,96.85,68.57Z"/><path class="cls-14" d="M117,62.39h-5.8a.59.59,0,0,1-.59-.6h0a.58.58,0,0,1,.59-.59H117a.58.58,0,0,1,.59.59h0A.59.59,0,0,1,117,62.39Z"/><path class="cls-14" d="M113.83,64.47h-2.6a.59.59,0,0,1-.59-.6h0a.58.58,0,0,1,.59-.59h2.6a.59.59,0,0,1,.6.59h0A.6.6,0,0,1,113.83,64.47Z"/><ellipse class="cls-7" cx="76.44" cy="62.75" rx="7.87" ry="8.49" transform="translate(-14.69 24.33) rotate(-16.52)"/><path class="cls-19" d="M84.82,52.34l-1.91.51a.33.33,0,0,1-.41-.23h0a.34.34,0,0,1,.24-.42h0l1.91-.51a.33.33,0,0,1,.41.24h0a.33.33,0,0,1-.24.41Z"/><path class="cls-19" d="M85.23,53.87l-1.91.51a.33.33,0,0,1-.41-.24h0a.33.33,0,0,1,.24-.41l1.91-.51a.33.33,0,0,1,.41.23h0a.34.34,0,0,1-.24.42Z"/><path class="cls-14" d="M128.49,62.11h0a2.39,2.39,0,0,0-.07,3.39l2.81,2.94a2.39,2.39,0,0,0,3.39.07h0a2.39,2.39,0,0,0,.07-3.39h0l-2.81-2.93a2.4,2.4,0,0,0-3.39-.08Z"/><path class="cls-7" d="M97.6,151.66a9.73,9.73,0,0,1-1.43-.11,9,9,0,0,1-7.44-10.29l1.84-11.5a9,9,0,1,1,17.74,2.73s0,.07,0,.11l-1.85,11.51A9,9,0,0,1,97.6,151.66Z"/><path class="cls-9" d="M103.22,123a9,9,0,0,1,3.12,8.32l-1.85,11.5a9,9,0,0,1-8.85,7.56,9.17,9.17,0,0,1-3.79-.83,8.93,8.93,0,0,0,4.32,2,8.73,8.73,0,0,0,1.44.11,9,9,0,0,0,8.84-7.55l1.84-11.51A9,9,0,0,0,103.22,123Z"/><path class="cls-7" d="M88,137.36h12.9a4.79,4.79,0,0,1,4.79,4.8v7.45H79v-3.19a9,9,0,0,1,9-9.06Z"/><path class="cls-9" d="M106.29,148.48a6.61,6.61,0,1,0-11.86,0Z"/><path class="cls-12" d="M104.79,147.32H79.48a2.55,2.55,0,0,0-2.56,2.56h0a2.55,2.55,0,0,0,2.56,2.55h25.31a2.55,2.55,0,0,0,2.55-2.55h0a2.55,2.55,0,0,0-2.55-2.56Z"/><path class="cls-7" d="M129.93,151.66a9,9,0,0,1-8.84-7.5l-1.79-10.72A9,9,0,1,1,137,130.49l1.79,10.72a9,9,0,0,1-7.39,10.33A9.14,9.14,0,0,1,129.93,151.66Z"/><path class="cls-9" d="M133.3,148.48a6.6,6.6,0,1,0-11.85,0Z"/><path class="cls-7" d="M131.38,137.36h4.35a7,7,0,0,1,7,7v5.2H124.34v-5.2a7,7,0,0,1,7-7Z"/><path class="cls-9" d="M135.73,137.36h-3.3a7,7,0,0,1,7,7v5.2h3.3v-5.2A7,7,0,0,0,135.73,137.36Z"/><path class="cls-12" d="M138.66,147.32h-16.8a2.55,2.55,0,0,0-2.56,2.56h0a2.55,2.55,0,0,0,2.56,2.55h16.8a2.56,2.56,0,0,0,2.56-2.55h0A2.56,2.56,0,0,0,138.66,147.32Z"/><path class="cls-26" d="M142,147.32H125.15a2.55,2.55,0,0,0-2.55,2.56h0a2.55,2.55,0,0,0,2.55,2.55H142a2.55,2.55,0,0,0,2.55-2.55h0A2.55,2.55,0,0,0,142,147.32Z"/><path class="cls-14" d="M110.48,119.38a2.3,2.3,0,0,1-.45,0l-9.33-2.08a2,2,0,0,1,.89-4l9.33,2.08a2,2,0,0,1-.44,4Z"/><path class="cls-14" d="M109.32,124.55a2.12,2.12,0,0,1-.44,0l-9.33-2.09a2,2,0,1,1,.89-4l9.33,2.08a2,2,0,0,1-.45,4Z"/><path class="cls-9" d="M100,110.79l-1.72-.42a5.44,5.44,0,0,0-1.27-.15,5.33,5.33,0,0,0-5.2,4.1l-.86,3.54a5.36,5.36,0,0,0,3.94,6.48h0l1.73.42a5.36,5.36,0,0,0,1.26.15h0a5.36,5.36,0,0,0,5.21-4.1l.86-3.55A5.36,5.36,0,0,0,100,110.79Z"/><rect class="cls-23" x="92.9" y="113.97" width="9.04" height="7.17" rx="2.69" transform="translate(-39.77 184.55) rotate(-76.38)"/><path class="cls-27" d="M116.59,116.24a2,2,0,0,1-.33-4l16.3-2.72a2,2,0,1,1,.67,4l-16.3,2.72A1.87,1.87,0,0,1,116.59,116.24Z"/><path class="cls-27" d="M117.43,121a2,2,0,0,1-.33-4l16.3-2.72a2,2,0,1,1,.67,4h0l-16.3,2.72A2,2,0,0,1,117.43,121Z"/><path class="cls-28" d="M124.7,107.86l-1.75.32a5.35,5.35,0,0,0-4.3,6.24h0l.66,3.59a5.34,5.34,0,0,0,6.23,4.3h0l1.75-.32a5.21,5.21,0,0,0,1.22-.37h0a5.36,5.36,0,0,0,3.09-5.86l-.66-3.59A5.37,5.37,0,0,0,124.7,107.86Z"/><rect class="cls-23" x="121.54" y="110.56" width="7.17" height="9.04" rx="2.69" transform="translate(-18.69 24.43) rotate(-10.38)"/></g></g></g></svg>