<svg id="Layer_1" data-name="Layer 1" xmlns="http://www.w3.org/2000/svg" xmlns:xlink="http://www.w3.org/1999/xlink" viewBox="0 0 432 63.8"><defs><style>.cls-1{fill:none;}.cls-2{clip-path:url(#clip-path);}.cls-3{fill:#c49a6c;}.cls-4{fill:#a97c50;}.cls-5{fill:#7e4a36;}.cls-6{fill:#9b2c00;}</style><clipPath id="clip-path"><rect class="cls-1" width="432" height="63.8"/></clipPath></defs><title>Artboard 1</title><g class="cls-2"><g id="OBJECTS"><polygon class="cls-3" points="144.1 33.7 125.2 33.7 0 33.7 0 63.8 125.2 63.8 144.1 63.8 432 63.8 432 33.7 144.1 33.7"/><path class="cls-4" d="M71,56.3c-2.1,3-5.6,4.3-7.8,2.7C61,57.6,61,53.9,63,50.9s5.6-4.3,7.8-2.7S73.1,53.3,71,56.3Z"/><path class="cls-4" d="M25.5,53.3c1.9,2.3,2.1,5.4.3,6.9S21,61,19,58.7s-2.1-5.4-.3-6.9S23.6,51,25.5,53.3Z"/><path class="cls-4" d="M34,57.2c1,1.2,1.1,2.9.1,3.7a2.58,2.58,0,0,1-3.6-.8c-1-1.3-1.1-2.9-.1-3.7S33,56,34,57.2Z"/><path class="cls-4" d="M58.7,58.2c-.8,1.4-2.3,2-3.4,1.4s-1.3-2.3-.5-3.7,2.3-2,3.4-1.4S59.5,56.8,58.7,58.2Z"/><path class="cls-4" d="M99.2,61c-.8,1.4-2.3,2-3.4,1.4s-1.3-2.3-.5-3.7,2.3-2,3.4-1.4S100,59.6,99.2,61Z"/><path class="cls-4" d="M97.5,53.6c-1.5,1.9-3.9,2.5-5.3,1.4s-1.5-3.6,0-5.5,3.9-2.5,5.3-1.4S98.9,51.7,97.5,53.6Z"/><path class="cls-4" d="M118.6,52.9c2.2,1.8,2.8,4.7,1.3,6.4s-4.4,1.6-6.5-.3-2.8-4.7-1.3-6.4S116.4,51.1,118.6,52.9Z"/><path class="cls-4" d="M128.4,56.9c1.4,1.2,1.8,3,.8,4.1s-2.8,1-4.2-.2-1.8-3-.8-4.1S127,55.8,128.4,56.9Z"/><path class="cls-4" d="M215.1,56.3c-2.1,3-5.6,4.3-7.8,2.7s-2.3-5.2-.2-8.2,5.6-4.3,7.8-2.7S217.2,53.3,215.1,56.3Z"/><path class="cls-4" d="M169.7,53.3c1.9,2.3,2.1,5.4.3,6.9s-4.8.9-6.8-1.5-2.1-5.4-.3-6.9S167.7,51,169.7,53.3Z"/><path class="cls-4" d="M178.1,57.2c1,1.2,1.1,2.9.1,3.7a2.58,2.58,0,0,1-3.6-.8c-1-1.3-1.1-2.9-.1-3.7S177.1,56,178.1,57.2Z"/><path class="cls-4" d="M202.8,58.2c-.8,1.4-2.4,2-3.4,1.4s-1.3-2.3-.5-3.7,2.4-2,3.4-1.4S203.6,56.8,202.8,58.2Z"/><path class="cls-4" d="M243.4,61c-.8,1.4-2.4,2-3.4,1.4s-1.3-2.3-.5-3.7,2.4-2,3.4-1.4S244.1,59.6,243.4,61Z"/><path class="cls-4" d="M241.6,53.6c-1.5,1.9-3.9,2.5-5.3,1.4s-1.5-3.6,0-5.5,3.9-2.5,5.4-1.4S243.1,51.7,241.6,53.6Z"/><path class="cls-4" d="M262.7,52.9c2.2,1.8,2.8,4.7,1.3,6.4s-4.4,1.6-6.5-.3-2.8-4.7-1.3-6.4S260.6,51.1,262.7,52.9Z"/><path class="cls-4" d="M272.5,56.9c1.4,1.2,1.8,3,.8,4.1a2.88,2.88,0,0,1-4.1-.2c-1.3-1.2-1.8-3-.8-4.1S271.1,55.8,272.5,56.9Z"/><rect class="cls-5" y="33.8" width="432" height="6"/><path class="cls-4" d="M359.3,56.3c-2.1,3-5.6,4.3-7.8,2.7s-2.3-5.2-.2-8.2,5.6-4.3,7.8-2.7S361.3,53.3,359.3,56.3Z"/><path class="cls-4" d="M313.8,53.3c1.9,2.3,2.1,5.4.3,6.9s-4.8.9-6.8-1.5-2.1-5.4-.3-6.9S311.9,51,313.8,53.3Z"/><path class="cls-4" d="M322.3,57.2c1,1.2,1.1,2.9.1,3.7a2.58,2.58,0,0,1-3.6-.8c-1-1.3-1.1-2.9-.1-3.7S321.2,56,322.3,57.2Z"/><path class="cls-4" d="M347,58.2c-.8,1.4-2.4,2-3.4,1.4s-1.3-2.3-.5-3.7,2.4-2,3.4-1.4S347.8,56.8,347,58.2Z"/><path class="cls-4" d="M387.5,61c-.8,1.4-2.3,2-3.4,1.4s-1.3-2.3-.5-3.7,2.4-2,3.4-1.4S388.3,59.6,387.5,61Z"/><path class="cls-4" d="M385.7,53.6c-1.5,1.9-3.9,2.5-5.3,1.4s-1.5-3.6,0-5.5,3.9-2.5,5.4-1.4S387.2,51.7,385.7,53.6Z"/><path class="cls-4" d="M406.9,52.9c2.2,1.8,2.8,4.7,1.3,6.4s-4.4,1.6-6.5-.3-2.8-4.7-1.3-6.4S404.7,51.1,406.9,52.9Z"/><path class="cls-4" d="M416.6,56.9c1.4,1.2,1.8,3,.8,4.1s-2.8,1-4.2-.2-1.8-3-.8-4.1S415.3,55.8,416.6,56.9Z"/><path class="cls-6" d="M432,20.3V33.8H-.4c0,.4-.8-24,3.6-33.8,0,0,0,18.2,2.6,27.4,0,0-.5-10,2.9-15.5,0,0,0,8.8,2.2,13.8a18.43,18.43,0,0,0,2.6-8.9s2.2,8,2.2,12c0,0,.2-17.8,8.6-23.6,0,0-5.1,13.6-2.8,21.5C23,24,24.6,21.5,26.3,19l1.1,7.3,3.1-4.4,1,5.4s2.6-6.3,0-18.2a39.56,39.56,0,0,1,5.7,19.8s4.3-17.8,10-22.1c0,0-4.1,13.2-3.6,21.5l3.6-8.4,3.6,8.6s-1-9,4.1-13.4c0,0-.2,9.2,3.6,13A24.1,24.1,0,0,0,60.9,8s5.9,6.4,5.5,18.8l3.1-6.3,2.4,8.8S75.5,9.2,81.2,4.2c0,0-3.3,13.4-2.2,22.1,0,0,1.2-12.3,7.6-17.8,0,0-2.6,9.2,0,17.8a17.36,17.36,0,0,0,3.7-9.7s3.2,5.5,2.8,10.5c0,0,4.9-12.1,1-22.6,0,0,6.6,8.4,6.1,25.3l3.6-8.8,2.7,7.3,2.6-7.3,3.1,7.1s1.2-6.7-1.6-16.3c0,0,5.6,6.8,6.6,14.2,0,0,1.7-14,5.9-20.9,0,0-1.3,18.1,1.8,23.2l1.2-7.3,3,7.7s.6-8.6,3.2-13.8c0,0,1.2,7.9,3.1,12.1,0,0,2.4-11.1,0-20.7.3.7,5.7,12.3,5,20.5l3.7-6.6c.3-7.1,1.2-15.5,3.5-20.5,0,0,0,18.2,2.6,27.4,0,0-.5-10,2.9-15.5,0,0,0,8.8,2.2,13.8a18.43,18.43,0,0,0,2.6-8.9s2.2,8,2.2,12c0,0,.2-17.8,8.6-23.6,0,0-5.1,13.6-2.8,21.5,1.5-2.7,3.1-5.2,4.8-7.7l1.1,7.3,2.8-4,1,5.4s2.6-6.3,0-18.2A39.56,39.56,0,0,1,181.3,29s4.3-17.8,10-22.1c0,0-4.1,13.2-3.6,21.5l3.7-8.4,3.6,8.6s-1-9,4.1-13.4c0,0-.2,9.2,3.6,13A24.08,24.08,0,0,0,205,8.1s5.9,6.4,5.5,18.8l3.1-6.3,2.4,8.8s3.6-20.1,9.3-25.1c0,0-3.3,13.4-2.2,22.1,0,0,1.2-12.3,7.6-17.8,0,0-2.6,9.2,0,17.8a17.36,17.36,0,0,0,3.7-9.7s3.2,5.5,2.8,10.5c0,0,4.9-12.1,1-22.6,0,0,6.6,8.4,6.1,25.3l3.6-8.8,2.6,7.3,2.6-7.3,3.1,7.1s1.2-6.7-1.5-16.3c0,0,5.6,6.8,6.6,14.2,0,0,1.7-14,5.9-20.9,0,0-1.3,18.1,1.8,23.2l1.2-7.3,3,7.7s.6-8.6,3.2-13.8c0,0,1.2,7.9,3.1,12.1,0,0,2.4-11.1,0-20.7.3.7,5.7,12.3,5,20.5l3.8-7.4c.4-7,1.3-14.9,3.4-19.8,0,0,0,18.2,2.6,27.4,0,0-.5-10,2.9-15.5,0,0,0,8.8,2.2,13.8a18.43,18.43,0,0,0,2.6-8.9s2.2,8,2.2,12c0,0,.2-17.8,8.6-23.6,0,0-5.1,13.6-2.8,21.5,1.5-2.7,3.1-5.2,4.8-7.7l1.1,7.3,3.1-4.4,1,5.4s2.6-6.3,0-18.2a39.56,39.56,0,0,1,5.7,19.8s4.3-17.8,10-22.1c0,0-4.1,13.2-3.6,21.5l3.6-8.4,3.6,8.6s-1-9,4.1-13.4c0,0-.2,9.2,3.6,13a24.1,24.1,0,0,0,2.4-20.1s5.9,6.4,5.5,18.8l3.1-6.3,2.4,8.8S364,8.9,369.8,3.9c0,0-3.3,13.4-2.2,22.1,0,0,1.2-12.3,7.6-17.8,0,0-2.6,9.2,0,17.8a17.36,17.36,0,0,0,3.7-9.7s3.2,5.5,2.7,10.5c0,0,4.9-12.1,1-22.6,0,0,6.6,8.4,6.1,25.3l3.6-8.8,2.6,7.3,2.6-7.3,3.1,7.1s1.2-6.7-1.6-16.3c0,0,5.6,6.8,6.6,14.2,0,0,1.7-14,5.9-20.9,0,0-1.3,18.1,1.8,23.2l1.2-7.3,3,7.7s.6-8.6,3.2-13.8c0,0,1.2,7.9,3.1,12.1,0,0,2.4-11.1,0-20.7.3.7,5.7,12.3,5,20.5Z"/></g></g></svg>