<?xml version="1.0" encoding="utf-8"?>
<!-- Generator: Adobe Illustrator 23.1.0, SVG Export Plug-In . SVG Version: 6.00 Build 0)  -->
<svg version="1.1" id="Layer_1" xmlns="http://www.w3.org/2000/svg" xmlns:xlink="http://www.w3.org/1999/xlink" x="0px" y="0px"
	 viewBox="0 0 432 63.8" style="enable-background:new 0 0 432 63.8;" xml:space="preserve">
<style type="text/css">
	.st0{clip-path:url(#SVGID_2_);}
	.st1{fill:#C49A6C;}
	.st2{fill:#A97C50;}
	.st3{fill:#8DC63F;}
	.st4{fill:#7E4A36;}
	.st5{fill:#9B2C00;}
</style>
<title>Asset 2</title>
<g>
	<g>
		<defs>
			<rect id="SVGID_1_" width="432" height="63.8"/>
		</defs>
		<clipPath id="SVGID_2_">
			<use xlink:href="#SVGID_1_"  style="overflow:visible;"/>
		</clipPath>
		<g class="st0">
			<g id="OBJECTS">
				<polygon class="st1" points="144.1,33.7 125.2,33.7 0,33.7 0,63.8 125.2,63.8 144.1,63.8 432,63.8 432,33.7 				"/>
				<path class="st2" d="M71,56.3c-2.1,3-5.6,4.3-7.8,2.7C61,57.6,61,53.9,63,50.9s5.6-4.3,7.8-2.7S73.1,53.3,71,56.3z"/>
				<path class="st2" d="M25.5,53.3c1.9,2.3,2.1,5.4,0.3,6.9S21,61,19,58.7s-2.1-5.4-0.3-6.9S23.6,51,25.5,53.3z"/>
				<path class="st2" d="M34,57.2c1,1.2,1.1,2.9,0.1,3.7s-2.6,0.5-3.6-0.8s-1.1-2.9-0.1-3.7S33,56,34,57.2z"/>
				<path class="st2" d="M58.7,58.2c-0.8,1.4-2.3,2-3.4,1.4s-1.3-2.3-0.5-3.7s2.3-2,3.4-1.4S59.5,56.8,58.7,58.2z"/>
				<path class="st2" d="M99.2,61c-0.8,1.4-2.3,2-3.4,1.4s-1.3-2.3-0.5-3.7s2.3-2,3.4-1.4S100,59.6,99.2,61z"/>
				<path class="st2" d="M97.5,53.6c-1.5,1.9-3.9,2.5-5.3,1.4s-1.5-3.6,0-5.5s3.9-2.5,5.3-1.4S98.9,51.7,97.5,53.6z"/>
				<path class="st2" d="M118.6,52.9c2.2,1.8,2.8,4.7,1.3,6.4s-4.4,1.6-6.5-0.3s-2.8-4.7-1.3-6.4S116.4,51.1,118.6,52.9z"/>
				<path class="st2" d="M128.4,56.9c1.4,1.2,1.8,3,0.8,4.1s-2.8,1-4.2-0.2s-1.8-3-0.8-4.1S127,55.8,128.4,56.9z"/>
				<polygon class="st3" points="144.4,38.8 144.4,38.8 144.4,38.6 				"/>
				<path class="st2" d="M215.1,56.3c-2.1,3-5.6,4.3-7.8,2.7s-2.3-5.2-0.2-8.2s5.6-4.3,7.8-2.7C217.2,49.6,217.2,53.3,215.1,56.3z"
					/>
				<path class="st2" d="M169.7,53.3c1.9,2.3,2.1,5.4,0.3,6.9s-4.8,0.9-6.8-1.5s-2.1-5.4-0.3-6.9S167.7,51,169.7,53.3z"/>
				<path class="st2" d="M178.1,57.2c1,1.2,1.1,2.9,0.1,3.7s-2.6,0.5-3.6-0.8s-1.1-2.9-0.1-3.7S177.1,56,178.1,57.2z"/>
				<path class="st2" d="M202.8,58.2c-0.8,1.4-2.4,2-3.4,1.4s-1.3-2.3-0.5-3.7s2.4-2,3.4-1.4S203.6,56.8,202.8,58.2z"/>
				<path class="st2" d="M243.4,61c-0.8,1.4-2.4,2-3.4,1.4s-1.3-2.3-0.5-3.7s2.4-2,3.4-1.4S244.1,59.6,243.4,61z"/>
				<path class="st2" d="M241.6,53.6c-1.5,1.9-3.9,2.5-5.3,1.4s-1.5-3.6,0-5.5s3.9-2.5,5.4-1.4S243.1,51.7,241.6,53.6z"/>
				<path class="st2" d="M262.7,52.9c2.2,1.8,2.8,4.7,1.3,6.4s-4.4,1.6-6.5-0.3c-2.2-1.9-2.8-4.7-1.3-6.4
					C257.6,51,260.6,51.1,262.7,52.9z"/>
				<path class="st2" d="M272.5,56.9c1.4,1.2,1.8,3,0.8,4.1s-2.8,1-4.1-0.2s-1.8-3-0.8-4.1S271.1,55.8,272.5,56.9z"/>
				<polygon class="st3" points="288.4,38.8 288.4,38.8 288.4,38.6 				"/>
				<rect y="33.8" class="st4" width="432" height="6"/>
				<path class="st2" d="M359.3,56.3c-2.1,3-5.6,4.3-7.8,2.7s-2.3-5.2-0.2-8.2s5.6-4.3,7.8-2.7S361.3,53.3,359.3,56.3z"/>
				<path class="st2" d="M313.8,53.3c1.9,2.3,2.1,5.4,0.3,6.9c-1.8,1.5-4.8,0.9-6.8-1.5s-2.1-5.4-0.3-6.9S311.9,51,313.8,53.3z"/>
				<path class="st2" d="M322.3,57.2c1,1.2,1.1,2.9,0.1,3.7s-2.6,0.5-3.6-0.8s-1.1-2.9-0.1-3.7S321.2,56,322.3,57.2z"/>
				<path class="st2" d="M347,58.2c-0.8,1.4-2.4,2-3.4,1.4s-1.3-2.3-0.5-3.7s2.4-2,3.4-1.4S347.8,56.8,347,58.2z"/>
				<path class="st2" d="M387.5,61c-0.8,1.4-2.3,2-3.4,1.4s-1.3-2.3-0.5-3.7s2.4-2,3.4-1.4S388.3,59.6,387.5,61z"/>
				<path class="st2" d="M385.7,53.6c-1.5,1.9-3.9,2.5-5.3,1.4s-1.5-3.6,0-5.5s3.9-2.5,5.4-1.4S387.2,51.7,385.7,53.6z"/>
				<path class="st2" d="M406.9,52.9c2.2,1.8,2.8,4.7,1.3,6.4s-4.4,1.6-6.5-0.3s-2.8-4.7-1.3-6.4S404.7,51.1,406.9,52.9z"/>
				<path class="st2" d="M416.6,56.9c1.4,1.2,1.8,3,0.8,4.1s-2.8,1-4.2-0.2s-1.8-3-0.8-4.1S415.3,55.8,416.6,56.9z"/>
				<path class="st5" d="M432,20.3v13.5H-0.4c0,0.4-0.8-24,3.6-33.8c0,0,0,18.2,2.6,27.4c0,0-0.5-10,2.9-15.5c0,0,0,8.8,2.2,13.8
					c1.6-2.7,2.5-5.7,2.6-8.9c0,0,2.2,8,2.2,12c0,0,0.2-17.8,8.6-23.6c0,0-5.1,13.6-2.8,21.5c1.5-2.7,3.1-5.2,4.8-7.7l1.1,7.3
					l3.1-4.4l1,5.4c0,0,2.6-6.3,0-18.2c3.6,6,5.6,12.8,5.7,19.8c0,0,4.3-17.8,10-22.1c0,0-4.1,13.2-3.6,21.5l3.6-8.4l3.6,8.6
					c0,0-1-9,4.1-13.4c0,0-0.2,9.2,3.6,13c3.7-6,4.6-13.4,2.4-20.1c0,0,5.9,6.4,5.5,18.8l3.1-6.3l2.4,8.8c0,0,3.6-20.1,9.3-25.1
					c0,0-3.3,13.4-2.2,22.1c0,0,1.2-12.3,7.6-17.8c0,0-2.6,9.2,0,17.8c2.2-2.8,3.5-6.2,3.7-9.7c0,0,3.2,5.5,2.8,10.5
					c0,0,4.9-12.1,1-22.6c0,0,6.6,8.4,6.1,25.3l3.6-8.8l2.7,7.3l2.6-7.3l3.1,7.1c0,0,1.2-6.7-1.6-16.3c0,0,5.6,6.8,6.6,14.2
					c0,0,1.7-14,5.9-20.9c0,0-1.3,18.1,1.8,23.2l1.2-7.3l3,7.7c0,0,0.6-8.6,3.2-13.8c0,0,1.2,7.9,3.1,12.1c0,0,2.4-11.1,0-20.7
					c0.3,0.7,5.7,12.3,5,20.5l3.7-6.6c0.3-7.1,1.2-15.5,3.5-20.5c0,0,0,18.2,2.6,27.4c0,0-0.5-10,2.9-15.5c0,0,0,8.8,2.2,13.8
					c1.6-2.7,2.5-5.7,2.6-8.9c0,0,2.2,8,2.2,12c0,0,0.2-17.8,8.6-23.6c0,0-5.1,13.6-2.8,21.5c1.5-2.7,3.1-5.2,4.8-7.7l1.1,7.3l2.8-4
					l1,5.4c0,0,2.6-6.3,0-18.2c3.6,6,5.6,12.8,5.7,19.8c0,0,4.3-17.8,10-22.1c0,0-4.1,13.2-3.6,21.5l3.7-8.4l3.6,8.6
					c0,0-1-9,4.1-13.4c0,0-0.2,9.2,3.6,13c3.7-6,4.5-13.4,2.3-20.1c0,0,5.9,6.4,5.5,18.8l3.1-6.3l2.4,8.8c0,0,3.6-20.1,9.3-25.1
					c0,0-3.3,13.4-2.2,22.1c0,0,1.2-12.3,7.6-17.8c0,0-2.6,9.2,0,17.8c2.2-2.8,3.5-6.2,3.7-9.7c0,0,3.2,5.5,2.8,10.5
					c0,0,4.9-12.1,1-22.6c0,0,6.6,8.4,6.1,25.3l3.6-8.8l2.6,7.3l2.6-7.3l3.1,7.1c0,0,1.2-6.7-1.5-16.3c0,0,5.6,6.8,6.6,14.2
					c0,0,1.7-14,5.9-20.9c0,0-1.3,18.1,1.8,23.2l1.2-7.3l3,7.7c0,0,0.6-8.6,3.2-13.8c0,0,1.2,7.9,3.1,12.1c0,0,2.4-11.1,0-20.7
					c0.3,0.7,5.7,12.3,5,20.5l3.8-7.4c0.4-7,1.3-14.9,3.4-19.8c0,0,0,18.2,2.6,27.4c0,0-0.5-10,2.9-15.5c0,0,0,8.8,2.2,13.8
					c1.6-2.7,2.5-5.7,2.6-8.9c0,0,2.2,8,2.2,12c0,0,0.2-17.8,8.6-23.6c0,0-5.1,13.6-2.8,21.5c1.5-2.7,3.1-5.2,4.8-7.7l1.1,7.3
					l3.1-4.4l1,5.4c0,0,2.6-6.3,0-18.2c3.6,6,5.6,12.8,5.7,19.8c0,0,4.3-17.8,10-22.1c0,0-4.1,13.2-3.6,21.5l3.6-8.4l3.6,8.6
					c0,0-1-9,4.1-13.4c0,0-0.2,9.2,3.6,13c3.7-6,4.6-13.4,2.4-20.1c0,0,5.9,6.4,5.5,18.8l3.1-6.3l2.4,8.8c0,0,3.6-20.1,9.4-25.1
					c0,0-3.3,13.4-2.2,22.1c0,0,1.2-12.3,7.6-17.8c0,0-2.6,9.2,0,17.8c2.2-2.8,3.5-6.2,3.7-9.7c0,0,3.2,5.5,2.7,10.5
					c0,0,4.9-12.1,1-22.6c0,0,6.6,8.4,6.1,25.3l3.6-8.8l2.6,7.3l2.6-7.3l3.1,7.1c0,0,1.2-6.7-1.6-16.3c0,0,5.6,6.8,6.6,14.2
					c0,0,1.7-14,5.9-20.9c0,0-1.3,18.1,1.8,23.2l1.2-7.3l3,7.7c0,0,0.6-8.6,3.2-13.8c0,0,1.2,7.9,3.1,12.1c0,0,2.4-11.1,0-20.7
					c0.3,0.7,5.7,12.3,5,20.5L432,20.3z"/>
			</g>
		</g>
	</g>
</g>
</svg>
